<svg width="281" height="169" viewBox="0 0 281 169" fill="none" xmlns="http://www.w3.org/2000/svg">
<circle cx="117.698" cy="148.445" r="16.9627" transform="rotate(12.9509 117.698 148.445)" fill="white"/>
<path d="M23.7868 52.214C25.1975 45.598 30.6103 40.1157 36.7425 38.9597L55.0229 35.5135C67.5776 33.1468 73.679 39.8019 71.1712 51.5076C69.6875 58.4381 65.9029 64.4553 59.7942 69.5637C65.2078 72.1873 67.0491 77.5528 65.311 85.6858C63.9863 91.8647 60.8765 97.4421 55.9756 102.323C51.2061 107.07 45.4446 110.129 38.813 111.379L20.5326 114.825C14.2029 116.019 10.9576 112.265 12.424 105.434L23.7868 52.214ZM43.3461 66.2061C46.4587 65.6193 48.721 62.6913 49.5347 58.9058C50.4345 54.6832 49.3648 52.9004 46.3567 53.4675L43.4416 54.017L40.733 66.6987L43.3461 66.2061V66.2061ZM38.1255 95.1644C41.4355 94.5404 44.0438 91.3427 44.9552 87.1179C45.9106 82.6803 44.6875 80.722 41.3659 81.3482L37.452 82.086L34.5136 95.8453L38.1255 95.1644Z" fill="white"/>
<path d="M116.883 65.3442L111.862 88.8529C110.664 94.4908 106.092 99.2013 100.761 100.206C97.3465 100.85 95.1385 99.9192 94.1348 97.4023C90.3524 101.134 85.9892 103.508 80.9604 104.456C69.3115 106.652 64.4215 101.128 66.646 90.7261C68.8856 80.2135 77.1494 71.8004 88.7983 69.6044C92.1083 68.9804 94.8039 68.9894 97.0849 69.6057C98.0404 65.1681 95.7999 62.9807 90.4807 63.9834C89.18 64.2286 87.5726 64.9526 85.5089 66.0632C83.4358 67.1877 81.8378 67.8978 80.63 68.1255C76.3096 68.94 73.9378 66.0557 74.9524 61.2943C75.8348 57.1711 79.0307 53.4537 84.4949 50.0303C88.7025 47.4692 93.4328 45.6394 98.5546 44.6738C113.918 41.7656 120.492 48.4399 116.883 65.3442ZM92.6139 87.8031C94.4662 85.8904 95.0234 83.2959 93.8678 81.9502C92.9095 80.5674 89.9944 81.117 88.1421 83.0296C86.4872 84.9051 85.9299 87.4997 86.8882 88.8825C88.0974 90.0015 91.0125 89.452 92.6139 87.8031Z" fill="white"/>
<path d="M138.105 82.8593C136.78 89.0382 131.594 94.3816 125.868 95.461C120.143 96.5404 116.793 92.8062 118.117 86.6273L129.94 31.2525C131.267 25.0852 136.585 19.6088 142.31 18.5294C148.036 17.45 151.254 21.3172 149.941 27.4939L138.105 82.8593Z" fill="white"/>
<path d="M197.064 43.7705L190.817 73.0304C189.493 79.2093 184.426 84.4219 178.805 85.4816C172.882 86.5982 169.807 82.9203 171.132 76.7414L176.337 52.3562C177.077 48.8852 176.457 47.7634 174.041 48.2188C171.73 48.6545 170.18 50.5102 169.466 53.868L164.303 78.0288C162.978 84.2077 157.911 89.4203 152.29 90.48C146.367 91.5966 143.292 87.9188 144.617 81.7399L152.559 44.5714C153.828 38.6074 158.505 33.8772 164.033 32.8351C168.052 32.0775 170.773 33.7534 171.316 37.0787C175.328 32.2693 179.908 29.3252 185.239 28.3203C194.763 26.5249 199.462 32.5063 197.064 43.7705Z" fill="white"/>
<path d="M200.352 63.127L220.39 39.2769L211.447 40.9627C206.523 41.8911 204.151 39.0068 205.264 33.806C206.376 28.6052 210.202 24.6607 215.127 23.7324L237.124 19.5857C243.151 18.4493 246.258 21.9166 244.945 28.0933C244.361 30.8012 242.763 33.8084 240.077 36.9126L220.263 60.6122L230.809 58.6242C235.524 57.7353 238 60.5999 236.915 65.6874C235.802 70.8881 231.845 74.9657 227.129 75.8546L203.425 80.3232C197.398 81.4595 194.41 77.8614 195.723 71.6847C196.307 68.9768 197.89 66.0807 200.352 63.127Z" fill="white"/>
<rect x="47.2783" y="117.562" width="234.139" height="19.1357" rx="9.56784" transform="rotate(-10.8937 47.2783 117.562)" fill="white"/>
</svg>
