<svg width="88" height="19" viewBox="0 0 88 19" fill="none" xmlns="http://www.w3.org/2000/svg">
<path fill-rule="evenodd" clip-rule="evenodd" d="M9.15183 0.00139099C7.2512 0.00139099 5.34731 0.0122678 3.44677 0.032208C1.35532 0.0537797 0.0188336 1.46718 0.0108032 3.56598C-0.00326375 7.31021 -0.00393446 11.0644 0.0108032 14.8132C0.0195044 16.9716 1.37207 18.3014 3.53788 18.3109C5.26675 18.3188 6.99374 18.3179 8.71969 18.3168C9.29477 18.3165 9.87041 18.3161 10.4454 18.3161C11.125 18.3161 11.805 18.3145 12.4853 18.3129C14.1871 18.3089 15.8914 18.3047 17.5927 18.3263C18.1452 18.3335 18.3194 18.197 18.3167 17.6227C18.304 15.0581 18.304 12.4941 18.304 9.93035C18.304 7.80762 18.304 5.68381 18.2968 3.56144C18.2968 1.45993 16.959 0.0523295 14.8709 0.0309391C12.9622 0.0115427 11.0697 0.00012207 9.16053 0.00012207L9.15183 0.00139099ZM9.1618 5.31854C10.312 5.31854 11.4589 5.32198 12.6078 5.32851C13.6407 5.33467 14.089 5.73783 14.0963 6.59816C14.1044 7.45685 13.5791 7.91911 12.5569 7.92853C11.7914 7.93524 11.0248 7.93307 10.2591 7.93071C9.87639 7.92962 9.49372 7.92853 9.11159 7.92853H9.10688C8.80072 7.92853 8.4944 7.92908 8.188 7.9298C7.37061 7.93125 6.55268 7.93289 5.73655 7.9231C4.76316 7.91041 4.25738 7.45214 4.25269 6.62281C4.24799 5.75868 4.69951 5.33467 5.71108 5.32797C6.85998 5.32126 8.01156 5.31854 9.1618 5.31854ZM9.46943 10.3857C9.36356 10.3857 9.2577 10.3857 9.15183 10.3857C7.98676 10.3857 6.82381 10.3857 5.65883 10.3912C4.72364 10.3951 4.21116 10.9002 4.22656 11.7471C4.24063 12.5543 4.72364 13.0024 5.65414 13.0166C6.47049 13.0289 7.2875 13.0263 8.10425 13.024C8.4383 13.0229 8.7723 13.0218 9.10615 13.0218H9.11087C9.45021 13.0218 9.78974 13.0229 10.1293 13.0238C10.9684 13.0262 11.8077 13.0285 12.6446 13.0166C13.5731 13.0031 14.0575 12.555 14.0722 11.7523C14.0883 10.9063 13.5766 10.3959 12.6446 10.3912C11.5856 10.3857 10.5283 10.3857 9.46943 10.3857Z" fill="#AA0024"/>
<path fill-rule="evenodd" clip-rule="evenodd" d="M56.7338 14.0534C56.7334 13.637 56.7332 13.2204 56.7332 12.8042C56.7332 12.3914 56.7343 11.9789 56.7354 11.5661C56.7385 10.4533 56.7416 9.33987 56.7225 8.22721C56.7158 7.80048 56.8451 7.66924 57.2651 7.69063C57.7848 7.71728 58.3058 7.71003 58.8266 7.70278C58.9482 7.70097 59.0702 7.69933 59.1917 7.69806C60.2173 7.68664 60.6549 7.29745 60.6475 6.41645C60.6408 5.5777 60.1552 5.16239 59.1496 5.15043C58.8016 5.14608 58.4537 5.1468 58.1059 5.14753C57.8115 5.14825 57.5171 5.1488 57.2229 5.14644C57.1897 5.1459 57.1554 5.14825 57.1208 5.15061C56.9968 5.15895 56.8692 5.16747 56.776 5.05127C56.4035 4.58902 56.8672 2.94976 57.4266 2.7199C58.081 2.45071 58.6678 2.65428 59.2734 2.91749C60.2355 3.33551 61.0233 2.75217 60.9343 1.72252C60.8705 0.985462 60.2737 0.409371 59.3244 0.151417C56.9616 -0.490296 53.9913 0.918571 54.1668 4.171C54.17 4.23118 54.1755 4.29264 54.1809 4.35409C54.2202 4.79549 54.259 5.23345 53.4493 5.17055C52.5114 5.0975 51.9278 5.66362 51.93 6.43385C51.9325 7.23455 52.4666 7.72489 53.4453 7.68193C54.0602 7.65456 54.1929 7.84544 54.1861 8.43567C54.1582 10.9298 54.1648 13.4254 54.1713 15.9218L54.1742 17.0239C54.1762 18.0106 54.6176 18.5124 55.4496 18.5165C56.3125 18.5205 56.7293 18.0523 56.7318 17.0567C56.7352 16.0556 56.7345 15.0544 56.7338 14.0534ZM25.3959 0.247673C25.9876 0.243504 26.5769 0.239335 27.1693 0.239335C27.8386 0.239879 28.5091 0.241872 29.1777 0.245317C31.3918 0.253293 33.0847 1.20589 33.9856 3.23236C34.8519 5.17653 34.541 7.04892 33.1141 8.67151C32.8314 8.99237 32.9466 9.13159 33.1804 9.37486C34.8606 11.1274 35.2357 13.2007 34.2764 15.3658C33.3412 17.4728 31.6008 18.5628 29.2333 18.5325C28.507 18.5232 27.78 18.5251 27.0531 18.5269C26.3608 18.5287 25.6686 18.5303 24.9766 18.5225C23.9678 18.5104 23.5739 18.1145 23.5699 17.095C23.5632 15.3828 23.5654 13.67 23.5676 11.9578C23.5687 11.1019 23.5699 10.2462 23.5699 9.39099V9.38555C23.5699 8.54679 23.5694 7.70786 23.5689 6.8691C23.5678 5.19176 23.5667 3.51479 23.5699 1.83963C23.5719 0.661341 23.9773 0.258006 25.1655 0.249305L25.3959 0.247673ZM27.881 2.74582C27.4697 2.74908 27.0586 2.75235 26.6474 2.73875C26.2068 2.72407 26.0975 2.90625 26.1116 3.30542C26.1279 3.75208 26.1241 4.19964 26.1203 4.64721C26.1185 4.84208 26.1168 5.03731 26.1168 5.23218C26.1168 5.41926 26.1188 5.60652 26.1208 5.79377C26.1257 6.24877 26.1306 6.70414 26.1069 7.15877C26.0833 7.60562 26.2187 7.77438 26.6877 7.75498C27.2047 7.73359 27.7231 7.73686 28.2416 7.74012C28.5804 7.7423 28.919 7.74429 29.2574 7.73958C30.8082 7.71873 31.8098 6.76214 31.8419 5.28766C31.8734 3.91903 30.8458 2.84117 29.3753 2.76413C28.8773 2.73802 28.3792 2.74201 27.881 2.74582ZM27.7855 10.3072C28.3585 10.3019 28.9311 10.2968 29.5032 10.3307C31.0501 10.4219 32.2425 11.674 32.2412 13.1303C32.2405 14.5667 31.1024 15.8039 29.5803 15.9232C28.9741 15.9707 28.3654 15.9673 27.7563 15.9638C27.3789 15.9617 27.0011 15.9595 26.6241 15.9694C26.2428 15.9794 26.1042 15.8422 26.1141 15.4597C26.1288 14.9175 26.1255 14.3759 26.1223 13.8335C26.121 13.6024 26.1196 13.3712 26.1196 13.1398C26.1196 12.9095 26.1208 12.6791 26.1221 12.4487C26.1252 11.904 26.1283 11.3589 26.1141 10.8151C26.1042 10.4346 26.2408 10.2974 26.6241 10.3053H26.6221C27.0096 10.314 27.3977 10.3106 27.7855 10.3072ZM40.9386 4.91858C38.5505 4.96752 36.0966 7.08046 36.2534 10.0119C36.3175 11.2137 36.2914 12.4235 36.2534 13.6274C36.1957 15.4187 36.9667 16.7647 38.3696 17.8023C40.3814 19.2929 43.7946 18.9311 45.2482 17.0781C45.8056 16.3668 45.7969 15.7726 45.2228 15.2279C44.6587 14.6933 44.021 14.7281 43.3825 15.325C42.3971 16.2461 41.2843 16.4511 40.232 15.9113C39.1159 15.3384 38.6737 14.4226 38.7789 13.046C38.813 12.6084 39.0341 12.5945 39.355 12.5972C39.926 12.6025 40.4961 12.6006 41.0669 12.5988H41.0689C41.3539 12.5981 41.6392 12.5972 41.9247 12.5972H43.3724C45.9356 12.5972 46.1593 12.3641 46.038 9.79759C45.9033 6.92493 43.7375 4.86094 40.9386 4.91858ZM41.1938 7.48307C42.4151 7.50319 43.3637 8.388 43.4469 9.54163C43.475 9.93227 43.3497 10.0702 42.9625 10.0568C42.532 10.0423 42.1 10.0454 41.6684 10.0487C41.485 10.0501 41.3008 10.0514 41.1175 10.0514C40.939 10.0514 40.7602 10.0497 40.5813 10.0479C40.172 10.0439 39.7619 10.04 39.3537 10.0568C38.9424 10.0735 38.7843 9.9611 38.8284 9.51081C38.9457 8.31367 39.9177 7.46168 41.1938 7.48307ZM76.8975 10.3904C76.8975 10.7629 76.9017 11.1354 76.9057 11.5081C76.9149 12.3405 76.924 13.1731 76.8875 14.0033C76.7998 15.9948 75.8343 17.4956 74.025 18.3014C72.1271 19.1461 70.3056 18.8615 68.724 17.4648C67.7352 16.5925 67.1777 15.4744 67.1611 14.1533C67.1283 11.5842 67.1355 9.01448 67.1489 6.44256C67.1529 5.64948 67.6534 5.14844 68.3675 5.12958C69.1045 5.11019 69.6443 5.63334 69.6503 6.46068C69.6583 7.53927 69.6561 8.61803 69.6541 9.69716C69.6518 11.0275 69.6492 12.3583 69.6652 13.689C69.6866 15.4777 71.1516 16.5898 72.7313 16.0699C73.7502 15.7351 74.2982 14.9806 74.3056 13.8157C74.3149 12.3938 74.3136 10.9719 74.3124 9.5496C74.3116 8.69634 74.3109 7.8429 74.3124 6.98928V6.95792C74.3129 6.70142 74.3136 6.44056 74.3598 6.19077C74.4925 5.47401 74.9896 5.11961 75.6708 5.14771C76.3508 5.17581 76.8614 5.55902 76.8801 6.29464C76.9048 7.25793 76.8995 8.22231 76.8944 9.18651C76.8923 9.58713 76.8901 9.98847 76.8901 10.3891L76.8975 10.3904ZM83.1277 4.89719C84.2444 4.94341 85.4664 5.51352 86.427 6.62546C86.9195 7.19557 86.9153 8.07856 86.4324 8.50927C85.8173 9.05799 85.0919 9.04258 84.5319 8.36389C83.8954 7.59292 83.1218 7.34839 82.1791 7.52114C81.6647 7.61504 81.2822 7.90309 81.1654 8.42751C81.0516 8.9427 81.3384 9.28639 81.7524 9.55178C82.3412 9.92956 82.9844 10.1888 83.6368 10.4259C84.2417 10.6456 84.8145 10.9264 85.3659 11.2567C86.7674 12.0967 87.3944 13.3341 87.2739 14.9532C87.1546 16.5629 86.2395 17.6167 84.8334 18.2551C82.9428 19.114 80.4534 18.7134 79.1303 17.3964C78.4431 16.7123 78.3285 15.9809 78.8188 15.4068C79.3897 14.7382 80.1271 14.7462 80.8346 15.4282C81.7269 16.2883 83.1136 16.431 84.0622 15.7604C84.9907 15.1039 84.9974 14.0916 84.0595 13.4586C83.5017 13.0819 82.8799 12.8396 82.258 12.597C82.0591 12.5196 81.8601 12.4418 81.6632 12.3599C80.3028 11.792 79.0532 11.1031 78.6949 9.48C78.1416 6.9746 80.0013 4.87634 83.1277 4.89719ZM50.5046 11.4816C50.5039 10.783 50.5032 10.0842 50.503 9.38555C50.5026 8.58758 50.5036 7.78943 50.5045 6.99146C50.5065 5.16747 50.5085 3.34366 50.495 1.52004C50.4889 0.698141 49.9416 0.190935 49.1933 0.212506C48.4832 0.232628 47.9895 0.698141 47.9889 1.42433C47.98 6.72335 47.9795 12.0177 47.9909 17.3147C47.9922 18.0528 48.4082 18.4368 49.1371 18.4783C50.0261 18.5292 50.4956 18.0449 50.5003 17.0092C50.5086 15.1668 50.5066 13.3241 50.5046 11.4816ZM64.7721 11.7972C64.7721 12.305 64.7726 12.8127 64.773 13.3203C64.7739 14.5526 64.7749 15.7851 64.7701 17.0172C64.7661 18.0508 64.3769 18.5024 63.5174 18.5031C62.6653 18.5037 62.2458 18.0429 62.2433 17.0199C62.2326 13.5665 62.2338 10.113 62.2425 6.66299C62.2453 5.69842 62.7302 5.14173 63.514 5.141C64.3078 5.14028 64.7668 5.68555 64.7701 6.66045C64.7749 7.87372 64.7739 9.08735 64.773 10.3008C64.7726 10.8004 64.7721 11.3004 64.7721 11.7999V11.7972ZM63.2963 3.64639C64.314 3.77038 64.774 3.22511 64.7721 1.81552C64.8183 1.15042 64.7171 0.479705 63.849 0.259275C63.0445 0.0557032 62.3966 0.490401 62.2599 1.30106C62.0343 2.64014 62.4329 3.54053 63.2963 3.64639Z" fill="#2D3C49"/>
</svg>
