<svg width="240" height="68" viewBox="0 0 240 68" fill="none" xmlns="http://www.w3.org/2000/svg">
<path d="M28.1717 0.510414C35.6485 -0.725492 42.8218 0.255615 49.5174 3.75358C59.533 8.98618 65.8308 17.1616 67.7069 28.2428C69.7696 40.4217 66.0122 50.8665 56.8875 59.2887C52.2297 63.5881 46.5515 65.9387 40.2977 66.9889C35.0342 67.8714 29.7881 67.6056 24.5262 66.9616C19.0503 66.2943 13.5446 66.0133 8.03109 66.3737C5.78483 66.5182 3.55544 66.9427 1.31625 67.2223C1.03711 67.2557 0.746185 67.1864 0.293784 67.153C0.508684 66.0359 0.721975 65.1235 0.855308 64.1999C1.47566 59.9205 1.65165 55.6111 1.3348 51.3053C1.02186 47.0393 0.438317 42.7911 0.135581 38.5251C-0.690292 26.8783 2.16319 16.522 11.2791 8.49674C16.1182 4.23756 21.7649 1.56848 28.1717 0.510414ZM8.26937 27.6139H21.2342L8.03597 39.9967V47.6794H29.3436V39.9967H21.4647L34.2547 27.6139L34.2567 27.612V19.8747H8.26937V27.6139ZM36.5848 27.612L36.5838 27.6139H44.87L31.6717 39.9967V47.6794H57.8914V39.9967H45.0985L57.8914 27.612V19.8747H36.5848V27.612Z" fill="#F96066"/>
<path d="M89.8076 47.0936V20.6538H101.97C103.884 20.6538 105.495 20.9182 106.805 21.447C108.139 21.9758 109.146 22.7187 109.826 23.6755C110.531 24.6324 110.884 25.7529 110.884 27.0372C110.884 28.6235 110.519 29.9329 109.789 30.9654C109.083 31.9978 108.038 32.6902 106.654 33.0428L106.54 32.3251C107.699 32.6021 108.706 33.0554 109.562 33.6849C110.418 34.2892 111.085 35.032 111.564 35.9134C112.042 36.7947 112.281 37.8019 112.281 38.9351C112.281 40.32 112.03 41.5287 111.526 42.5611C111.022 43.5683 110.305 44.4119 109.373 45.0918C108.467 45.7716 107.409 46.2753 106.2 46.6026C105.017 46.93 103.733 47.0936 102.348 47.0936H89.8076ZM97.3618 40.6725H102.121C102.599 40.6725 103.002 40.597 103.33 40.4459C103.657 40.2696 103.909 40.0178 104.085 39.6905C104.261 39.338 104.35 38.9225 104.35 38.444C104.35 38.016 104.249 37.6634 104.047 37.3864C103.871 37.0843 103.607 36.8577 103.254 36.7066C102.902 36.5303 102.461 36.4422 101.932 36.4422H97.3618V40.6725ZM97.3618 31.0031H100.572C101.152 31.0031 101.617 30.9276 101.97 30.7765C102.348 30.6254 102.612 30.4114 102.763 30.1344C102.939 29.8322 103.028 29.4671 103.028 29.039C103.028 28.4599 102.826 27.994 102.423 27.6415C102.045 27.2638 101.403 27.0749 100.497 27.0749H97.3618V31.0031Z" fill="white"/>
<path d="M116.544 47.0936V26.8861H124.211V47.0936H116.544ZM120.396 23.2223C119.037 23.2223 117.966 22.9075 117.186 22.278C116.43 21.6485 116.053 20.7546 116.053 19.5962C116.053 18.5387 116.443 17.6699 117.224 16.99C118.004 16.3102 119.062 15.9702 120.396 15.9702C121.756 15.9702 122.814 16.285 123.569 16.9145C124.35 17.544 124.74 18.4379 124.74 19.5962C124.74 20.6538 124.35 21.5226 123.569 22.2025C122.788 22.8823 121.731 23.2223 120.396 23.2223Z" fill="white"/>
<path d="M128.88 47.0936V43.4676L139.871 29.7944V32.9295H128.88V26.8861H147.124V30.8143L137.039 43.9209L136.888 41.0502H147.501V47.0936H128.88Z" fill="white"/>
<path d="M151.491 47.0936V43.4676L162.483 29.7944V32.9295H151.491V26.8861H169.735V30.8143L159.65 43.9209L159.499 41.0502H170.112V47.0936H151.491Z" fill="white"/>
<path d="M188.115 47.5091C187.184 47.5091 186.302 47.3958 185.471 47.1692C184.64 46.9425 183.897 46.6278 183.243 46.2249C182.613 45.822 182.084 45.3436 181.656 44.7896C181.228 44.2356 180.951 43.6313 180.825 42.9766L182.374 42.6366L181.77 47.0936H174.858V19.143H182.563V31.8341L180.863 31.3053C181.014 30.6254 181.304 29.9959 181.732 29.4167C182.185 28.8124 182.727 28.2962 183.356 27.8681C183.986 27.4149 184.691 27.0749 185.471 26.8483C186.252 26.5965 187.07 26.4706 187.926 26.4706C189.639 26.4706 191.15 26.9238 192.459 27.8303C193.794 28.7369 194.838 29.9833 195.594 31.5697C196.349 33.1561 196.727 34.9691 196.727 37.0087C196.727 39.0736 196.349 40.8992 195.594 42.4855C194.864 44.0468 193.844 45.2806 192.534 46.1871C191.25 47.0684 189.777 47.5091 188.115 47.5091ZM185.811 41.2769C186.541 41.2769 187.158 41.1132 187.662 40.7858C188.166 40.4333 188.543 39.9423 188.795 39.3128C189.072 38.6833 189.211 37.9152 189.211 37.0087C189.211 36.1022 189.072 35.3342 188.795 34.7047C188.543 34.05 188.166 33.559 187.662 33.2316C187.158 32.9043 186.541 32.7406 185.811 32.7406C185.081 32.7406 184.451 32.9043 183.923 33.2316C183.419 33.559 183.029 34.05 182.752 34.7047C182.5 35.3342 182.374 36.1022 182.374 37.0087C182.374 37.9152 182.5 38.6833 182.752 39.3128C183.029 39.9423 183.419 40.4333 183.923 40.7858C184.451 41.1132 185.081 41.2769 185.811 41.2769Z" fill="white"/>
<path d="M200.493 47.0936V26.8861H207.594L208.047 33.6093L206.348 32.5517C206.675 31.3934 207.191 30.361 207.896 29.4545C208.601 28.5228 209.445 27.7926 210.427 27.2638C211.434 26.735 212.504 26.4706 213.638 26.4706C214.091 26.4706 214.519 26.5084 214.922 26.5839C215.325 26.6343 215.715 26.7098 216.093 26.8105L213.978 35.309C213.726 35.1328 213.323 34.9691 212.769 34.818C212.24 34.6669 211.661 34.5914 211.031 34.5914C210.578 34.5914 210.163 34.6669 209.785 34.818C209.432 34.9439 209.13 35.1454 208.878 35.4223C208.652 35.6993 208.476 36.0267 208.35 36.4044C208.224 36.7821 208.161 37.2228 208.161 37.7264V47.0936H200.493Z" fill="white"/>
<path d="M228.131 47.4713C225.94 47.4713 223.988 47.0181 222.276 46.1116C220.564 45.2051 219.217 43.9712 218.234 42.41C217.252 40.8236 216.761 39.0106 216.761 36.971C216.761 34.9313 217.252 33.1309 218.234 31.5697C219.217 29.9833 220.564 28.7369 222.276 27.8303C223.988 26.9238 225.94 26.4706 228.131 26.4706C230.321 26.4706 232.26 26.9238 233.947 27.8303C235.66 28.7369 236.994 29.9833 237.951 31.5697C238.933 33.1309 239.424 34.9313 239.424 36.971C239.424 39.0106 238.933 40.8236 237.951 42.41C236.994 43.9712 235.66 45.2051 233.947 46.1116C232.26 47.0181 230.321 47.4713 228.131 47.4713ZM228.131 41.0502C228.81 41.0502 229.415 40.874 229.944 40.5214C230.497 40.1689 230.926 39.6905 231.228 39.0861C231.53 38.4566 231.681 37.7516 231.681 36.971C231.681 36.1652 231.53 35.4601 231.228 34.8558C230.926 34.2263 230.497 33.7352 229.944 33.3827C229.415 33.0302 228.81 32.8539 228.131 32.8539C227.425 32.8539 226.796 33.0302 226.242 33.3827C225.713 33.7352 225.285 34.2263 224.958 34.8558C224.656 35.4601 224.504 36.1652 224.504 36.971C224.504 37.7516 224.656 38.4566 224.958 39.0861C225.285 39.6905 225.713 40.1689 226.242 40.5214C226.796 40.874 227.425 41.0502 228.131 41.0502Z" fill="white"/>
</svg>
