<svg width="649" height="125" viewBox="0 0 649 125" fill="none" xmlns="http://www.w3.org/2000/svg">
<path d="M87.4509 124.515L49.9934 86.7201H65.8199L87.4509 108.546L153.156 42.2495H168.983L87.4509 124.515Z" fill="#5FBCFF"/>
<path d="M39.8363 11.2917L15.8265 35.5175L55.1578 75.2026H39.3313L0 35.5175L35.2008 0H138.521L168.96 30.7134H153.134L133.885 11.2917H39.8363Z" fill="white"/>
<path d="M257.525 73.4517C265.001 73.4517 270.089 69.2894 271.939 61.8126H283.346C282.267 68.5186 279.415 73.9142 274.713 77.9995C270.012 82.0848 264.308 84.0889 257.525 84.0889C249.816 84.0889 243.342 81.5452 238.023 76.3808C232.782 71.2164 230.161 64.6646 230.161 56.8024C230.161 48.9402 232.782 42.4654 238.023 37.301C243.342 32.1366 249.816 29.5159 257.525 29.5159C264.308 29.5159 270.012 31.52 274.713 35.6052C279.415 39.6905 282.267 45.0861 283.346 51.7921H271.939C270.089 44.3153 265.001 40.153 257.525 40.153C252.823 40.153 248.969 41.6946 245.962 44.7778C242.956 47.861 241.415 51.8692 241.415 56.8024C241.415 61.7355 242.956 65.7437 245.962 68.8269C248.969 71.9101 252.823 73.4517 257.525 73.4517Z" fill="white"/>
<path d="M357.497 30.595V83.0097H346.321V62.5063H322.888V83.0097H311.711V30.595H322.888V52.3317H346.321V30.595H357.497Z" fill="white"/>
<path d="M413.191 29.5159C420.822 29.5159 427.297 32.1366 432.615 37.4552C437.934 42.7737 440.632 49.1714 440.632 56.8024C440.632 64.4333 437.934 70.831 432.615 76.1496C427.297 81.4681 420.822 84.0889 413.191 84.0889C405.56 84.0889 399.085 81.4681 393.767 76.1496C388.448 70.831 385.827 64.4333 385.827 56.8024C385.827 49.1714 388.448 42.7737 393.767 37.4552C399.085 32.1366 405.56 29.5159 413.191 29.5159ZM413.191 73.683C417.816 73.683 421.67 72.0643 424.676 68.7498C427.759 65.4354 429.301 61.5043 429.301 56.8024C429.301 52.1005 427.759 48.1694 424.676 44.8549C421.67 41.5404 417.816 39.9217 413.191 39.9217C408.643 39.9217 404.789 41.5404 401.706 44.8549C398.623 48.1694 397.081 52.1005 397.081 56.8024C397.081 61.5043 398.623 65.4354 401.706 68.7498C404.789 72.0643 408.643 73.683 413.191 73.683Z" fill="white"/>
<path d="M480.211 40.6926V52.1005H504.722V62.198H480.211V72.9122H507.882V83.0097H469.034V30.595H507.882V40.6926H480.211Z" fill="white"/>
<path d="M554.848 62.1209L546.677 71.3706V83.0097H535.501V30.595H546.677V56.2628L569.493 30.595H582.751L562.402 53.6421L584.832 83.0097H570.958L554.848 62.1209Z" fill="white"/>
<path d="M620.446 40.6926V52.1005H644.957V62.198H620.446V72.9122H648.118V83.0097H609.269V30.595H648.118V40.6926H620.446Z" fill="white"/>
</svg>
