<svg width="722" height="132" viewBox="0 0 722 132" fill="none" xmlns="http://www.w3.org/2000/svg">
<path d="M0 0H54.6443L126.268 47.0092C115.926 55.5287 111.437 60.8483 105.373 71.065L0 0Z" fill="white"/>
<path fill-rule="evenodd" clip-rule="evenodd" d="M158.072 72.9858L158.057 72.9958C146.461 80.7954 139.726 92.6652 139.726 105.54V132L106.169 110.148V105.54C106.169 84.1488 117.609 63.6377 137.139 50.7034L137.146 50.6988L212.11 0.820267H266.793L158.072 72.9858Z" fill="white"/>
<path d="M404.333 91.9232C420.246 91.9232 433.191 80.6246 433.191 66.7353C433.191 52.702 420.246 41.4755 404.333 41.4755H322.375V48.672H404.333C415.794 48.672 424.946 56.8041 424.946 66.7353C424.946 76.7385 415.794 84.7266 404.333 84.7266H322.375V91.9232H404.333Z" fill="white"/>
<path d="M577 91.9232V84.7266H495.042C483.581 84.7266 474.429 76.7385 474.429 66.7353C474.429 56.8041 483.581 48.672 495.042 48.672H577V41.4755H495.042C479.129 41.4755 466.184 52.702 466.184 66.7353C466.184 80.6246 479.129 91.9232 495.042 91.9232H577Z" fill="white"/>
<path d="M657.133 72.434L610.004 41.5115H624.505L662.982 66.681L657.133 72.434Z" fill="white"/>
<path d="M680.196 68.9103C674.263 72.8655 670.803 78.9062 670.803 85.4502V91.9224H661.74V85.4502C661.74 76.7488 666.436 68.4069 674.428 63.1573L707.22 41.5115H721.804L680.196 68.9103Z" fill="white"/>
</svg>
