<svg width="54" height="44" viewBox="0 0 54 44" fill="none" xmlns="http://www.w3.org/2000/svg">
<path d="M34.0505 6.03367C35.7044 4.02261 37.3561 2.01008 39.0105 2.10809e-05C39.1297 0.0965515 39.2479 0.194665 39.3667 0.292193C38.309 2.11641 37.2498 3.94005 36.1912 5.76374C36.4141 5.98673 36.6438 6.20244 36.8709 6.42238C37.4516 6.4523 38.0158 6.75222 38.3436 7.2364C38.804 7.88213 38.7927 8.81797 38.3105 9.44874C37.8196 10.1389 36.8373 10.4083 36.0616 10.0733C35.9428 10.031 35.8323 9.93755 35.6997 9.96754C35.1046 10.0258 34.5089 10.078 33.9143 10.1342C34.2797 11.7009 34.6461 13.2674 35.0122 14.8341C35.0323 14.9543 35.1324 15.0328 35.2036 15.1241C35.8494 15.8984 36.203 16.9029 36.2138 17.909C37.8522 17.9084 39.4906 17.909 41.1283 17.909C40.5559 19.8751 39.9794 21.8402 39.4043 23.8058C39.0657 24.9389 38.1892 25.8783 37.1109 26.348C36.8626 25.9175 36.603 25.4937 36.3516 25.0648C37.1073 24.7839 37.751 24.1671 37.9849 23.3851C38.3756 22.0503 38.7653 20.7149 39.1561 19.38H34.5744C34.6198 19.0182 34.6715 18.6579 34.7138 18.2961C34.8155 17.4315 34.5156 16.5261 33.9096 15.8994C33.8156 15.7962 33.6752 15.7173 33.6613 15.565C33.1379 13.3155 32.6098 11.067 32.0859 8.81797C33.4811 8.68735 34.8769 8.5599 36.2721 8.42827C36.3935 8.52686 36.5008 8.64968 36.6463 8.7137C36.8973 8.81175 37.2012 8.60426 37.2012 8.33479C37.2173 8.08604 36.9747 7.86869 36.7294 7.90589C36.6082 7.89815 36.4642 7.97144 36.365 7.87491C35.5939 7.26064 34.8201 6.64947 34.0505 6.03367Z" fill="black"/>
<path d="M32.0917 2.43492C32.7442 3.00736 33.3956 3.58184 34.0481 4.15434C33.7368 4.53524 33.4234 4.91414 33.1112 5.29404C32.7808 5.0318 32.453 4.7665 32.1243 4.5022C31.813 4.81092 31.5048 5.12217 31.1941 5.43083C30.4219 5.3725 29.6078 5.49432 28.9492 5.92222C28.4402 6.24743 28.0727 6.77134 27.9091 7.34999C27.2097 10.2824 26.5056 13.2138 25.801 16.1452C24.6938 16.1395 23.5866 16.1344 22.4794 16.1276C21.6638 16.1106 20.8291 16.2598 20.107 16.6521C19.547 16.9556 19.0865 17.4579 18.8842 18.068C18.687 18.6714 18.5668 19.3218 18.6839 19.9536C18.7969 20.5204 18.9637 21.0758 19.1542 21.6214C19.3962 22.3224 19.4659 23.0961 19.2723 23.8182C19.1232 24.3984 18.8093 24.9276 18.4041 25.3658C19.0752 27.4269 19.7611 29.4833 20.4276 31.5466C19.9104 31.5429 19.3926 31.545 18.8759 31.5455C18.1398 29.3176 17.4089 27.0883 16.6785 24.8589C16.9263 24.669 17.2019 24.5084 17.4063 24.2674C17.7842 23.8404 17.9618 23.2479 17.8859 22.6832C17.8477 22.2877 17.6804 21.9239 17.5689 21.5476C17.4239 21.0758 17.2933 20.5978 17.2081 20.111C17.0719 19.2252 17.2272 18.3173 17.5235 17.4791C16.6692 17.6153 15.8511 17.9823 15.1919 18.5444C14.4605 19.1597 13.9278 20.0062 13.6914 20.9323C13.4333 21.9058 13.5123 22.9603 13.8999 23.8884C14.1193 24.4016 14.287 24.957 14.237 25.5211C14.1771 26.2758 13.6542 26.9587 12.962 27.2509C12.4618 27.4708 11.877 27.478 11.3696 27.2762C11.5487 26.8193 11.7376 26.3666 11.9152 25.9093C12.2858 26.0461 12.7313 25.7679 12.7659 25.3755C12.7834 24.9017 12.5134 24.4893 12.3803 24.0495C11.7619 22.2496 12.0566 20.1704 13.1468 18.611C14.2742 16.9628 16.2454 15.9223 18.2462 15.9573C18.3262 15.9558 18.4201 15.9697 18.4764 15.897C19.2321 15.1985 20.2459 14.8496 21.2504 14.7118C21.7779 14.6318 22.3127 14.6467 22.8448 14.6504C23.391 14.6689 23.9381 14.6426 24.4847 14.6679C24.7325 14.1579 24.8842 13.6087 25.0474 13.0672C25.5202 11.403 25.9032 9.71461 26.2532 8.02101C26.3549 7.55285 26.4137 7.07179 26.5887 6.6227C26.886 5.81231 27.4579 5.10614 28.1904 4.64984C28.9012 4.19976 29.7395 3.9814 30.5751 3.94168C31.0774 3.43632 31.5894 2.94081 32.0917 2.43492Z" fill="black"/>
<path d="M25.2827 20.461C25.8231 20.7242 26.3822 20.954 26.9711 21.083C28.3111 21.4035 29.727 21.4304 31.0701 21.1139C31.3958 21.0365 31.721 20.956 32.0467 20.878C32.0447 21.3607 32.0483 21.8433 32.0447 22.326C32.0462 22.4086 32.038 22.4989 32.0886 22.5706C33.8699 25.5614 35.6502 28.5527 37.4316 31.544C36.8565 31.546 36.282 31.544 35.7075 31.545C34.0568 28.7751 32.4081 26.0033 30.7578 23.2334C30.6628 23.0734 30.5339 22.9159 30.5617 22.7172C29.0131 22.9392 27.4166 22.8019 25.9248 22.3322C25.1645 23.6732 24.4006 25.0122 23.6402 26.3532C24.3092 28.084 24.9807 29.8137 25.6497 31.5445C25.1201 31.5445 24.5905 31.5455 24.0609 31.5445C23.3749 29.7745 22.692 28.0035 22.0039 26.2345C23.0941 24.3087 24.1915 22.3864 25.2827 20.461Z" fill="black"/>
<path d="M39.9643 39.0559C39.5788 39.7073 39.2003 40.3624 38.8194 41.0163C39.6066 41.0169 40.3938 41.0163 41.1815 41.0163C40.7845 40.3639 40.3938 39.7073 39.9932 39.0574C39.986 39.057 39.9716 39.0564 39.9643 39.0559ZM35.6021 43.3825C37.052 40.896 38.5014 38.4096 39.9534 35.9247C41.4597 38.4101 42.9633 40.896 44.4675 43.382C43.8496 43.383 43.2322 43.382 42.6144 43.3825C42.4167 43.0568 42.2179 42.7316 42.0234 42.4038C40.6859 42.3987 39.3485 42.4033 38.0111 42.4018C37.818 42.7275 37.6297 43.0563 37.4376 43.3825C36.826 43.382 36.2137 43.383 35.6021 43.3825Z" fill="black"/>
<path d="M48.1647 36.3831C49.1377 36.1503 50.1706 36.155 51.1399 36.4043C51.7407 36.569 52.3364 36.8394 52.7679 37.3019C53.0571 37.6024 53.2305 38.007 53.2428 38.4246C52.7174 38.4298 52.1924 38.4262 51.6674 38.4267C51.62 38.1681 51.3707 38.0303 51.1497 37.9368C50.6532 37.7376 50.1107 37.6943 49.5811 37.6886C49.037 37.703 48.4661 37.7428 47.9799 38.0106C47.8054 38.1082 47.6077 38.2971 47.6851 38.517C47.8095 38.7586 48.1069 38.8185 48.3458 38.8887C49.3421 39.1116 50.3729 39.1581 51.3583 39.4353C51.8987 39.5881 52.4546 39.8002 52.8459 40.2199C53.3327 40.7345 53.3585 41.5888 52.9445 42.1546C52.4887 42.791 51.732 43.1291 50.9918 43.3077C49.946 43.5421 48.8326 43.5172 47.8095 43.189C47.2866 43.0135 46.7782 42.743 46.4097 42.3249C46.1485 42.0297 45.9864 41.6451 45.9849 41.2481C46.5057 41.2497 47.027 41.2486 47.5484 41.2486C47.6108 41.5196 47.8746 41.6616 48.1131 41.755C48.7128 41.978 49.3643 42.0017 49.9971 41.9723C50.471 41.9367 50.9624 41.8665 51.3784 41.6214C51.5337 41.5285 51.702 41.3658 51.6452 41.1661C51.571 40.9488 51.3346 40.8569 51.1353 40.7877C50.6129 40.6256 50.0657 40.5709 49.5274 40.4914C48.7314 40.3743 47.921 40.2658 47.1731 39.9541C46.7994 39.7935 46.4334 39.5664 46.2094 39.2175C45.8779 38.7019 45.9275 37.991 46.2899 37.5038C46.7323 36.8952 47.4539 36.5648 48.1647 36.3831Z" fill="black"/>
<path d="M13.7747 38.2414C14.2945 37.2317 15.318 36.5107 16.4371 36.3372C16.7799 36.2752 17.1288 36.2964 17.4752 36.2939C18.4781 36.2939 19.4811 36.2934 20.4845 36.2939C20.4845 36.8214 20.4856 37.3484 20.484 37.8759C19.2901 37.8775 18.0966 37.8765 16.9027 37.8765C16.2967 37.877 15.7057 38.1903 15.3511 38.6796C15.0094 39.1411 14.884 39.7574 15.0306 40.3144C15.2442 41.1676 16.0835 41.7886 16.9544 41.7994C17.6032 41.7999 18.2515 41.7994 18.9003 41.7994C18.9035 41.0138 18.9003 40.2282 18.9019 39.4426C19.4295 39.442 19.957 39.442 20.4845 39.4426C20.485 40.7557 20.4845 42.0689 20.4845 43.382C19.2916 43.383 18.0988 43.3815 16.9058 43.383C16.2446 43.3846 15.587 43.1875 15.03 42.8328C14.2852 42.3616 13.7267 41.6028 13.5047 40.7495C13.2833 39.9179 13.3736 39.0043 13.7747 38.2414Z" fill="black"/>
<path d="M24.0201 36.2938C24.5471 36.2927 25.0746 36.2938 25.6022 36.2938C25.6032 38.6563 25.6032 41.0194 25.6022 43.3824C25.0746 43.3819 24.5471 43.383 24.0195 43.3819C24.0195 41.0194 24.0195 38.6569 24.0201 36.2938Z" fill="black"/>
<path d="M27.9523 36.2938C30.3179 36.2938 32.6836 36.2933 35.0492 36.2938V37.8765C34.1315 37.877 33.2142 37.8765 32.2964 37.8765C32.2959 39.7119 32.297 41.547 32.2959 43.382C31.7684 43.382 31.2403 43.384 30.7128 43.3814C30.7143 41.5465 30.7123 39.7119 30.7133 37.8775C29.793 37.8754 28.8726 37.8775 27.9523 37.8765C27.9517 37.3489 27.9512 36.8213 27.9523 36.2938Z" fill="black"/>
<path d="M1.58384 37.9371C1.58384 39.2471 1.58331 40.5577 1.58384 41.8683C2.20069 41.8683 2.81749 41.8673 3.43435 41.8689C3.68938 41.873 3.94745 41.8451 4.18852 41.7589C4.85179 41.5349 5.36848 40.9315 5.48308 40.2403C5.60901 39.5749 5.3463 38.8605 4.83477 38.4207C4.47911 38.1105 4.01042 37.9366 3.5381 37.9371C2.88668 37.936 2.23526 37.9366 1.58384 37.9371ZM0.00120817 43.4509C0.00120817 41.0848 -0.00237146 38.7186 0.00279248 36.3529C1.18175 36.3545 2.36019 36.3529 3.53862 36.3535C4.57358 36.3457 5.59921 36.818 6.26149 37.614C6.86179 38.3165 7.16271 39.2616 7.08637 40.182C7.03115 40.9279 6.72865 41.6525 6.2393 42.2183C5.58736 42.9844 4.59629 43.4458 3.58973 43.4509C2.39375 43.4515 1.19725 43.4509 0.00120817 43.4509Z" fill="black"/>
<path d="M9.44708 43.4512C9.44602 41.0856 9.44602 38.7199 9.44708 36.3537C9.97462 36.3537 10.5016 36.3532 11.0292 36.3542C11.0297 38.7199 11.0297 41.0856 11.0292 43.4512C10.5016 43.4517 9.97462 43.4512 9.44708 43.4512Z" fill="black"/>
</svg>
