<svg width="1116" height="301" viewBox="0 0 1116 301" fill="none" xmlns="http://www.w3.org/2000/svg">
<path fill-rule="evenodd" clip-rule="evenodd" d="M262.412 149.046C260.899 156.728 253.445 161.73 245.763 160.218L245.745 160.214C242.056 159.488 238.806 157.326 236.711 154.203C234.616 151.081 233.847 147.254 234.573 143.565C237.48 128.799 236.462 113.529 231.619 99.2806C226.777 85.0317 218.28 72.303 206.978 62.366C195.676 52.429 181.965 45.6316 167.213 42.653C152.462 39.6743 137.187 40.6187 122.915 45.3918C108.643 50.1648 95.8729 58.5994 85.8811 69.8529C75.8892 81.1064 69.0253 94.7847 65.975 109.522C62.9247 124.258 63.7949 139.538 68.4985 153.833C73.2021 168.128 81.5745 180.939 92.7793 190.985C95.5788 193.495 97.2666 197.015 97.4713 200.769C97.6759 204.524 96.3807 208.206 93.8706 211.005L93.8587 211.019C88.6316 216.848 79.6683 217.337 73.8385 212.11C58.9371 198.749 47.8025 181.712 41.5472 162.701C35.2918 143.689 34.1346 123.369 38.1912 103.771C42.2478 84.1721 51.3762 65.9811 64.6645 51.0149C77.9527 36.0488 94.9355 24.8316 113.916 18.4839C132.897 12.1362 153.211 10.8802 172.829 14.8416C192.447 18.8029 210.682 27.8428 225.713 41.0581C240.744 54.2734 252.043 71.2015 258.483 90.1511C264.923 109.101 266.278 129.409 262.412 149.046ZM83.3149 201.541C70.2629 189.838 60.5103 174.916 55.0313 158.264C49.5523 141.612 48.5388 123.814 52.0919 106.648C55.645 89.4818 63.6405 73.5485 75.2795 60.4398C86.9184 47.3312 101.793 37.5062 118.418 31.9463C135.043 26.3864 152.836 25.2864 170.02 28.7561C187.203 32.2257 203.175 40.1436 216.34 51.7188C229.505 63.2939 239.402 78.121 245.043 94.7187C250.683 111.316 251.87 129.104 248.484 146.304L248.501 146.307L248.503 146.296C248.625 145.68 248.74 145.063 248.85 144.445C251.797 127.824 250.498 110.716 245.06 94.713C239.418 78.1122 229.519 63.2825 216.352 51.7053C203.184 40.1281 187.209 32.2088 170.023 28.7385C152.837 25.2682 135.041 26.3685 118.413 31.9293C101.785 37.4902 86.9071 47.317 75.2661 60.428C63.625 73.5389 55.6281 89.4751 52.0744 106.644C48.5206 123.814 49.5343 141.615 55.0143 158.27C60.2968 174.324 69.5512 188.772 81.9045 200.276C82.3637 200.704 82.8272 201.128 83.295 201.547L83.3029 201.554L83.3149 201.541Z" fill="#94EBFF"/>
<path fill-rule="evenodd" clip-rule="evenodd" d="M239.421 181.494C244.958 187.031 244.958 196.008 239.421 201.544L153.162 287.805L108.78 243.423C103.243 237.887 103.243 228.91 108.78 223.373C114.317 217.837 123.293 217.837 128.83 223.373L153.162 247.705L219.371 181.495C224.908 175.958 233.884 175.958 239.421 181.494Z" fill="#94EBFF"/>
<path d="M181.942 128.414C181.942 143.542 169.679 155.805 154.551 155.805C139.424 155.805 127.16 143.542 127.16 128.414C127.16 113.287 139.424 101.023 154.551 101.023C169.679 101.023 181.942 113.287 181.942 128.414Z" fill="#94EBFF"/>
<path fill-rule="evenodd" clip-rule="evenodd" d="M262.412 149.046C260.899 156.728 253.445 161.73 245.763 160.218L245.745 160.214C242.056 159.488 238.806 157.326 236.711 154.203C234.616 151.081 233.847 147.254 234.573 143.565C237.48 128.799 236.462 113.529 231.619 99.2806C226.777 85.0317 218.28 72.303 206.978 62.366C195.676 52.429 181.965 45.6316 167.213 42.653C152.462 39.6743 137.187 40.6187 122.915 45.3918C108.643 50.1648 95.8729 58.5994 85.8811 69.8529C75.8892 81.1064 69.0253 94.7847 65.975 109.522C62.9247 124.258 63.7949 139.538 68.4985 153.833C73.2021 168.128 81.5745 180.939 92.7793 190.985C95.5788 193.495 97.2666 197.015 97.4713 200.769C97.6759 204.524 96.3807 208.206 93.8706 211.005L93.8587 211.019C88.6316 216.848 79.6683 217.337 73.8385 212.11C58.9371 198.749 47.8025 181.712 41.5472 162.701C35.2918 143.689 34.1346 123.369 38.1912 103.771C42.2478 84.1721 51.3762 65.9811 64.6645 51.0149C77.9527 36.0488 94.9355 24.8316 113.916 18.4839C132.897 12.1362 153.211 10.8802 172.829 14.8416C192.447 18.8029 210.682 27.8428 225.713 41.0581C240.744 54.2734 252.043 71.2015 258.483 90.1511C264.923 109.101 266.278 129.409 262.412 149.046ZM83.3149 201.541C70.2629 189.838 60.5103 174.916 55.0313 158.264C49.5523 141.612 48.5388 123.814 52.0919 106.648C55.645 89.4818 63.6405 73.5485 75.2795 60.4398C86.9184 47.3312 101.793 37.5062 118.418 31.9463C135.043 26.3864 152.836 25.2864 170.02 28.7561C187.203 32.2257 203.175 40.1436 216.34 51.7188C229.505 63.2939 239.402 78.121 245.043 94.7187C250.683 111.316 251.87 129.104 248.484 146.304L248.501 146.307L248.503 146.296C248.625 145.68 248.74 145.063 248.85 144.445C251.797 127.824 250.498 110.716 245.06 94.713C239.418 78.1122 229.519 63.2825 216.352 51.7053C203.184 40.1281 187.209 32.2088 170.023 28.7385C152.837 25.2682 135.041 26.3685 118.413 31.9293C101.785 37.4902 86.9071 47.317 75.2661 60.428C63.625 73.5389 55.6281 89.4751 52.0744 106.644C48.5206 123.814 49.5343 141.615 55.0143 158.27C60.2968 174.324 69.5512 188.772 81.9045 200.276C82.3637 200.704 82.8272 201.128 83.295 201.547L83.3029 201.554L83.3149 201.541Z" fill="#27315B"/>
<path d="M181.942 128.414C181.942 143.542 169.679 155.805 154.551 155.805C139.424 155.805 127.16 143.542 127.16 128.414C127.16 113.287 139.424 101.023 154.551 101.023C169.679 101.023 181.942 113.287 181.942 128.414Z" fill="#27315B"/>
<path d="M372.433 200.098C382.513 209.98 394.767 214.921 409.393 214.921C424.019 214.921 436.273 209.98 446.353 199.9C456.433 189.82 461.572 177.368 461.572 162.742C461.572 148.117 456.631 135.862 446.551 125.98C436.669 115.9 424.414 110.959 409.788 110.959C395.163 110.959 382.711 116.098 372.631 126.178C362.551 136.258 357.61 148.512 357.61 163.138C357.61 177.764 362.551 190.018 372.433 200.098ZM378.165 131.119C386.664 122.62 397.139 118.272 409.591 118.272C422.043 118.272 432.518 122.62 441.017 131.119C449.516 139.618 453.666 150.093 453.666 162.94C453.666 175.787 449.516 186.46 441.017 194.959C432.518 203.458 422.043 207.608 409.591 207.608C397.139 207.608 386.664 203.458 378.165 194.959C369.666 186.46 365.515 175.787 365.515 162.94C365.515 150.093 369.666 139.618 378.165 131.119Z" fill="#27315B"/>
<path d="M578.619 115.9C578.619 113.331 577.235 111.947 574.666 111.947C572.096 111.947 570.713 113.331 570.713 115.9V160.568C570.713 192.785 554.901 207.608 532.764 207.608C513.79 207.608 499.56 193.575 499.56 164.521V115.9C499.56 113.331 498.176 111.947 495.607 111.947C493.037 111.947 491.654 113.331 491.654 115.9V167.091C491.654 182.705 495.409 194.761 503.117 202.865C510.826 210.968 520.313 214.921 531.579 214.921C550.157 214.921 563.202 207.213 570.713 191.599L571.503 210.375C571.503 212.747 572.689 213.933 575.061 213.933C577.433 213.933 578.619 212.747 578.619 210.375V115.9Z" fill="#27315B"/>
<path d="M662.93 110.959C648.304 110.959 635.852 116.098 625.772 126.178C615.692 136.258 610.751 148.512 610.751 163.138C610.751 177.764 615.692 190.018 625.574 200.098C635.655 209.98 647.909 214.921 662.535 214.921C670.045 214.921 676.963 213.538 683.485 210.573C690.007 207.608 694.553 204.644 697.518 201.679C700.483 198.714 703.25 195.552 705.424 192.192C706.017 191.204 706.412 190.215 706.412 189.227C706.412 187.251 705.424 186.262 703.25 186.262C702.064 186.262 700.878 187.053 699.692 188.634C690.008 201.284 677.753 207.608 662.732 207.608C650.083 207.608 639.607 203.26 631.109 194.761C622.807 186.262 618.657 175.194 618.657 161.557H705.226C708.586 161.557 710.168 159.58 710.168 155.825C710.168 143.966 705.424 133.491 695.937 124.596C686.45 115.505 675.382 110.959 662.93 110.959ZM619.25 154.639C621.029 143.966 625.97 135.269 634.073 128.549C642.177 121.632 651.862 118.272 662.732 118.272C672.615 118.272 681.311 121.829 688.822 128.747C696.53 135.665 701.076 144.164 702.459 154.639H619.25Z" fill="#27315B"/>
<path d="M731.269 201.086C731.269 202.47 732.257 204.051 734.431 205.434C743.325 211.759 753.998 214.921 766.45 214.921C777.123 214.921 785.622 212.154 791.946 206.62C798.271 200.888 801.434 194.168 801.434 186.262C801.434 172.032 790.563 162.149 768.822 156.813C749.848 152.069 743.128 144.757 743.128 135.072C743.128 126.375 752.417 118.272 768.229 118.272C776.53 118.272 784.238 120.644 791.551 125.387C792.737 126.178 793.923 126.573 794.911 126.573C797.283 126.573 798.469 125.387 798.469 123.015C798.469 121.632 797.481 120.248 795.702 119.062C787.401 113.726 778.111 110.959 767.833 110.959C757.556 110.959 749.452 113.528 743.72 118.667C737.989 123.608 735.222 129.735 735.222 136.851C735.222 149.698 746.488 159.185 764.869 163.928C787.005 169.265 793.528 176.973 793.528 188.239C793.528 199.11 783.448 207.608 766.845 207.608C756.568 207.608 747.08 204.644 738.384 198.912C737 197.924 735.815 197.528 734.826 197.528C732.455 197.528 731.269 198.714 731.269 201.086Z" fill="#27315B"/>
<path d="M819.99 112.935C817.816 112.935 816.828 113.924 816.828 116.098C816.828 118.272 817.816 119.26 819.99 119.26H839.557V183.298C839.557 204.051 850.428 214.921 869.204 214.921C876.912 214.921 883.237 213.933 888.178 212.154C890.352 211.364 891.341 210.178 891.341 208.399C891.341 206.225 890.155 205.039 887.981 205.039C887.783 205.039 878.098 207.608 869.204 207.608C855.764 207.608 847.463 199.307 847.463 183.298V119.26H888.771C890.945 119.26 891.934 118.272 891.934 116.098C891.934 113.924 890.945 112.935 888.771 112.935H847.463V89.2176C847.463 86.6482 846.079 85.4623 843.51 85.4623C840.941 85.4623 839.557 86.6482 839.557 89.2176V112.935H819.99Z" fill="#27315B"/>
<path d="M961.383 110.959C946.757 110.959 934.305 116.098 924.225 126.178C914.145 136.258 909.204 148.512 909.204 163.138C909.204 177.764 914.145 190.018 924.027 200.098C934.107 209.98 946.361 214.921 960.987 214.921C975.416 214.921 987.67 209.98 997.75 199.9C999.133 198.517 999.726 197.331 999.726 196.342C999.726 193.971 998.54 192.785 996.366 192.785C995.378 192.785 994.192 193.378 993.204 194.366C984.705 203.26 974.032 207.608 961.185 207.608C948.733 207.608 938.258 203.458 929.759 194.959C921.26 186.46 917.11 175.787 917.11 162.94C917.11 150.093 921.26 139.618 929.759 131.119C938.258 122.62 948.733 118.272 961.185 118.272C973.439 118.272 983.717 122.225 992.018 130.131C993.006 131.119 994.192 131.712 995.18 131.712C997.552 131.712 998.738 130.526 998.738 128.154C998.738 127.166 998.145 125.98 996.959 124.794C987.274 115.505 975.416 110.959 961.383 110.959Z" fill="#27315B"/>
<path d="M1068.07 110.959C1053.45 110.959 1041 116.098 1030.92 126.178C1020.84 136.258 1015.89 148.512 1015.89 163.138C1015.89 177.764 1020.84 190.018 1030.72 200.098C1040.8 209.98 1053.05 214.921 1067.68 214.921C1075.19 214.921 1082.11 213.538 1088.63 210.573C1095.15 207.608 1099.7 204.644 1102.66 201.679C1105.63 198.714 1108.39 195.552 1110.57 192.192C1111.16 191.204 1111.56 190.215 1111.56 189.227C1111.56 187.251 1110.57 186.262 1108.39 186.262C1107.21 186.262 1106.02 187.053 1104.84 188.634C1095.15 201.284 1082.9 207.608 1067.88 207.608C1055.23 207.608 1044.75 203.26 1036.25 194.761C1027.95 186.262 1023.8 175.194 1023.8 161.557H1110.37C1113.73 161.557 1115.31 159.58 1115.31 155.825C1115.31 143.966 1110.57 133.491 1101.08 124.596C1091.59 115.505 1080.52 110.959 1068.07 110.959ZM1024.39 154.639C1026.17 143.966 1031.11 135.269 1039.22 128.549C1047.32 121.632 1057 118.272 1067.88 118.272C1077.76 118.272 1086.45 121.829 1093.96 128.747C1101.67 135.665 1106.22 144.164 1107.6 154.639H1024.39Z" fill="#27315B"/>
</svg>
