<svg width="393" height="90" viewBox="0 0 393 90" fill="none" xmlns="http://www.w3.org/2000/svg">
<path d="M66.3093 42.6971C45.0371 42.6971 42.2316 40.5107 42.2316 27.9829H78.5393V52.3145C78.5393 63.2115 61.7666 80.574 38.6008 89.5776C9.27165 76.2274 0.839113 71.2054 0 48.4299H33.9867C31.1164 54.5789 31.2021 57.7359 32.6491 63.144C32.6491 63.144 36.1336 47.8884 46.4078 46.5189C56.6819 45.1494 63.4972 48.4299 66.3093 42.6971Z" fill="#A62836"/>
<path d="M36.1706 42.6971V0.0473383C30.4545 0.195471 27.2939 0.523335 21.7566 1.64891V42.6971H36.1706Z" fill="#A62836"/>
<path d="M0 42.6971H14.3494L14.4471 2.93985C9.09597 4.12186 5.93927 4.9909 0 6.95407V42.6971Z" fill="#A62836"/>
<path d="M42.2316 21.7154V0.0473383C48.2493 -0.0993895 51.5736 0.0698389 57.3967 0.911877V21.7154H42.2316Z" fill="#A62836"/>
<path d="M63.4611 21.7154H78.5393V7.52761C72.7533 4.86459 69.4458 3.76394 63.4611 2.32953V21.7154Z" fill="#A62836"/>
<path d="M157.089 32.7949L147.749 62.2509H136.972L133.141 48.7203L129.249 62.2509H118.473L109.193 32.7949H120.987L124.52 46.8643L128.71 32.7949H137.511L141.702 46.7446L145.235 32.7949H157.089Z" fill="#A62836"/>
<path d="M188.938 46.8643C188.938 48.2413 188.878 49.319 188.818 50.0374H168.462C169.241 52.8513 171.096 54.2283 174.03 54.2283C175.886 54.2283 177.203 53.5697 177.982 52.2526H188.758C188.219 55.4856 186.543 58.06 183.849 60.0357C181.155 61.9515 177.922 62.9095 174.09 62.9095C169.121 62.9095 165.169 61.4726 162.116 58.6587C159.063 55.7849 157.566 52.073 157.566 47.463C157.566 42.853 159.003 39.1411 161.876 36.2673C164.81 33.3936 168.582 31.9567 173.252 31.9567C177.802 31.9567 181.574 33.3337 184.507 36.0877C187.441 38.7819 188.938 42.3741 188.938 46.8643ZM173.551 40.2786C170.857 40.2786 169.121 41.7155 168.342 44.5294H178.7C178.161 41.7155 176.485 40.2786 173.551 40.2786Z" fill="#A62836"/>
<path d="M203.853 27.4066C202.596 28.604 201.039 29.2027 199.183 29.2027C197.327 29.2027 195.77 28.604 194.513 27.4066C193.256 26.1493 192.597 24.6526 192.597 22.8565C192.597 21.0604 193.256 19.5636 194.513 18.3662C195.77 17.1089 197.327 16.5102 199.183 16.5102C201.039 16.5102 202.596 17.1089 203.853 18.3662C205.11 19.5636 205.769 21.0604 205.769 22.8565C205.769 24.6526 205.11 26.1493 203.853 27.4066ZM204.99 32.7949V59.5567C204.99 64.5259 204.152 67.8188 201.937 70.6327C199.722 73.4466 195.591 74.8236 189.364 75.0032L188.346 65.6635C192.238 65.1246 193.435 63.9871 193.435 61.1732V32.7949H204.99Z" fill="white"/>
<path d="M241.813 32.7949V62.2509H230.198V60.5147C227.863 62.2509 225.348 63.1489 222.535 63.1489C215.29 63.1489 210.441 58.3593 210.441 50.3966V32.7949H222.056V47.8222C222.056 51.1151 223.433 52.7316 226.187 52.7316C227.564 52.7316 228.941 52.073 230.198 50.8157V32.7949H241.813Z" fill="white"/>
<path d="M245.48 52.2526H255.538C255.898 54.1684 257.514 55.1264 260.448 55.1264C262.603 55.1264 263.681 54.5875 263.681 53.5697C263.681 52.7914 262.783 52.3125 260.927 52.0131L255.419 51.1151C249.671 50.1572 246.797 47.1038 246.797 41.955C246.797 35.7285 252.186 31.8968 260.508 31.8968C264.639 31.8968 268.051 32.7949 270.745 34.591C273.499 36.3871 274.936 38.9615 274.996 42.3741L264.998 42.4339C264.818 40.578 263.321 39.62 260.567 39.62C258.652 39.62 257.694 40.099 257.694 41.1168C257.694 42.0148 258.532 42.5537 260.208 42.853L265.896 43.9307C272.302 45.1281 275.475 48.2413 275.475 53.2105C275.475 56.5632 274.098 59.0778 271.404 60.6943C268.71 62.3108 265.237 63.1489 260.987 63.1489C251.946 63.1489 246.139 59.2574 245.48 52.2526Z" fill="white"/>
<path d="M303.62 51.8934L304.758 61.5324C301.286 62.6101 297.873 63.1489 294.58 63.1489C290.988 63.1489 288.114 61.8917 285.899 59.3173C283.684 56.7428 282.606 53.3901 282.606 49.1992V42.7333H277.397V32.7949H282.606V23.3354H294.221V32.7949H303.501V42.7333H294.221V48.6604C294.221 51.2348 295.478 52.4921 298.053 52.4921C298.472 52.4921 300.328 52.3125 303.62 51.8934Z" fill="white"/>
<path d="M319.561 27.4066C318.304 28.604 316.747 29.2027 314.891 29.2027C313.035 29.2027 311.479 28.604 310.222 27.4066C308.964 26.1493 308.306 24.6526 308.306 22.8565C308.306 21.0604 308.964 19.5636 310.222 18.3662C311.479 17.1089 313.035 16.5102 314.891 16.5102C316.747 16.5102 318.304 17.1089 319.561 18.3662C320.819 19.5636 321.477 21.0604 321.477 22.8565C321.477 24.6526 320.819 26.1493 319.561 27.4066ZM320.699 32.7949V62.2509H309.084V32.7949H320.699Z" fill="white"/>
<path d="M341.773 53.6296C344.586 53.6296 346.622 51.9533 346.921 49.3788H357.219C357.039 53.3901 355.483 56.683 352.609 59.1975C349.735 61.6522 346.143 62.9095 341.773 62.9095C336.923 62.9095 332.912 61.4726 329.858 58.5988C326.805 55.7251 325.248 52.0131 325.248 47.463C325.248 42.853 326.805 39.1411 329.858 36.2673C332.912 33.3936 336.923 31.9567 341.773 31.9567C346.143 31.9567 349.735 33.214 352.609 35.7285C355.483 38.1832 357.039 41.476 357.219 45.4873H346.921C346.622 42.9129 344.586 41.2365 341.773 41.2365C338.121 41.2365 335.845 43.8109 335.845 47.463C335.845 51.0552 338.121 53.6296 341.773 53.6296Z" fill="white"/>
<path d="M392.11 46.8643C392.11 48.2413 392.05 49.319 391.99 50.0374H371.634C372.412 52.8513 374.268 54.2283 377.202 54.2283C379.058 54.2283 380.375 53.5697 381.153 52.2526H391.93C391.391 55.4856 389.715 58.06 387.021 60.0357C384.327 61.9515 381.094 62.9095 377.262 62.9095C372.293 62.9095 368.341 61.4726 365.288 58.6587C362.235 55.7849 360.738 52.073 360.738 47.463C360.738 42.853 362.175 39.1411 365.048 36.2673C367.982 33.3936 371.754 31.9567 376.424 31.9567C380.974 31.9567 384.746 33.3337 387.679 36.0877C390.613 38.7819 392.11 42.3741 392.11 46.8643ZM376.723 40.2786C374.029 40.2786 372.293 41.7155 371.514 44.5294H381.872C381.333 41.7155 379.657 40.2786 376.723 40.2786Z" fill="white"/>
</svg>
