<svg width="1128" height="500" viewBox="0 0 1128 500" fill="none" xmlns="http://www.w3.org/2000/svg">
<path fill-rule="evenodd" clip-rule="evenodd" d="M350.012 315.592H440.825C420.139 295.558 399.164 265.895 398.837 215.425L398.761 0.202881H317.408L317.503 214.445C317.332 277.516 341.276 307.359 350.012 315.592Z" fill="white"/>
<mask id="mask0_2005_55" style="mask-type:luminance" maskUnits="userSpaceOnUse" x="0" y="0" width="1101" height="499">
<path d="M0.162292 0H1100.42V498.503H0.162292V0Z" fill="white"/>
</mask>
<g mask="url(#mask0_2005_55)">
<path fill-rule="evenodd" clip-rule="evenodd" d="M572.941 247.217C545.902 247.135 524.088 225.174 524.154 198.132C524.227 171.109 546.175 149.266 573.207 149.345C600.198 149.421 622.029 171.382 621.95 198.405C621.88 225.444 599.938 247.29 572.941 247.217ZM700.118 79.9737H618.482L618.501 90.2249C604.161 81.8597 588.949 78.2366 568.76 78.1759C502.447 77.9925 448.541 131.601 448.363 197.923C448.17 264.277 501.785 318.177 568.098 318.358C588.239 318.408 598.658 316.982 615.353 308.249C603.875 342.303 565.784 349.844 542.276 352.614C542.276 352.614 535.768 353.714 525.536 352.579L525.479 423.184C534.028 423.574 543.699 423.01 543.699 423.01C615.112 423.2 699.814 372.891 700.086 271.095L700.118 79.9737Z" fill="white"/>
</g>
<path fill-rule="evenodd" clip-rule="evenodd" d="M794.123 0.0665664C796.399 5.98147 798.438 11.7537 800.409 17.6021C801.484 19.1236 805.703 20.0111 805.37 18.9334C802.473 9.18934 804.184 11.6618 806.036 10.9359C810.851 25.216 815.076 39.5595 818.737 54.1851C825.194 80.8719 829.762 107.879 832.38 135.152C833.16 150.878 833.287 166.673 832.811 182.468C832.659 185.194 835.185 187.34 837.252 189.191C836.523 203.95 835.195 218.763 833.388 233.369C829.026 255.669 823.441 277.763 816.648 299.365C807.833 327.507 794.843 354.771 780.664 380.209C779.913 382.503 782.671 382.171 784.085 383.394C789.74 384.811 790.602 378.658 793.959 376.056C796.811 376.056 799.566 375.352 800.739 372.877C812.47 349.312 822.722 325.047 831.413 300.139C838.181 278.051 843.722 255.545 847.836 232.792C849.266 222.376 850.474 212.001 851.317 201.528C853.44 199.883 856.369 201.68 859.029 200.977C860.123 198.973 857.992 195.487 860.899 194.631C861.159 194.891 861.441 195.208 861.65 195.417C861.159 208.201 860.249 221.02 858.899 233.743C855.193 258.503 850.011 283.155 843.192 307.223C842.051 307.959 840.834 308.583 839.595 309.249C829.201 342.199 815.907 374.18 797.445 403.706C796.954 407.181 798.869 410.88 802.007 413.273C806.695 415.967 810.169 410.163 814.271 414.44C815.247 413.691 816.125 412.94 817.051 412.24C818.395 413.691 820.902 415.815 823.181 415.245C823.742 417.445 821.232 419.384 824.725 420.32C834.342 412.607 835.407 398.27 848.641 394.565C852.22 391.322 853.824 386.269 856.503 382.418C863.654 371.52 869.467 359.538 876.847 349.122C873.157 358.945 868.114 368.357 863.318 377.581C865.074 380.773 861.65 382.919 861.441 385.946C859.932 391.24 856.721 395.278 854.531 400.261C855.149 401.824 857.869 402.09 859.229 401.373C865.074 395.864 867.889 388.336 872.767 382.757C876.428 384.313 879.246 381.106 881.234 379.09C881.367 383.039 877.845 385.765 881.234 389.591C880.444 395.864 872.659 399.218 873.268 405.849C877.718 408.661 884.261 406.838 888.733 407.263C893.954 402.825 894.23 397.167 899.818 393.297C886.987 424.497 869.813 454.119 848.213 480.603C847.643 482.775 849.833 484.927 851.681 485.263C858.991 485.868 858.664 477.316 865.014 475.611C865.369 478.35 861.993 480.442 861.238 483.257C861.825 488.021 851.158 491.115 858.097 495.93C862.421 497.277 866.972 493.207 870.155 497.47C871.857 497.178 871.908 496.294 873.632 495.895C874.916 496.773 875.987 499.118 878.187 498.354C909.055 459.749 930.648 415.245 948.06 369.751C948.443 369.751 948.878 369.656 949.296 369.656C948.25 380.034 943.54 388.602 940.871 398.204C941.895 399.919 944.158 400.448 945.692 399.919C952.976 387.049 957.89 373.067 965.63 360.429C965.792 360.41 966.087 360.356 966.198 360.232C963.221 373.222 956.894 384.909 952.476 397.237C952.507 397.985 953.709 398.777 954.248 399.434C958.314 395.864 958.936 388.954 963.985 386.117C962.321 393.902 957.69 401.516 955.189 408.791C961.164 406.41 964.803 416.345 970.249 411.913C972.753 412.395 974.813 414.44 977.565 413.406C981.346 410.163 982.795 404.591 986.925 402.607C987.223 402.87 987.461 403.139 987.746 403.39C986.415 408.287 984.633 413.374 982.193 417.8C982.852 419.384 984.551 420.909 986.415 420.351C1000.92 395.344 1009.89 367.913 1019.19 340.621C1019.76 339.46 1021.34 339.761 1022.11 340.148C1030.17 346.849 1021.75 355.341 1021.61 362.762C1019.62 368.417 1017.77 373.913 1016.36 379.628C1017.92 379.945 1020.86 382.63 1021.14 378.969C1023.56 374.703 1023.88 369.117 1026.55 365.367C1026.8 365.7 1027.14 365.992 1027.44 366.239C1021.51 387.61 1012.84 408.094 1004.26 428.545C1005.48 429.931 1008.02 431.221 1008.67 428.564C1020.84 401.148 1031.43 373.067 1040.42 344.532C1041.14 338.719 1044.34 333.441 1045.09 327.821C1047.77 327.605 1047.1 332.553 1049.85 330.88C1052.3 330.008 1050.32 326.28 1053.1 326.661C1054.2 330.334 1055.18 334.075 1056.16 337.841C1059.08 339.647 1061.81 341.971 1065.14 341.971C1095 262.31 1097.92 174.005 1084.82 88.359C1084.96 87.7885 1085.96 87.8994 1086.48 87.668C1086.78 87.9343 1087.11 88.3273 1087.5 88.6221C1092.13 120.834 1094.79 153.404 1095.37 186.012C1096.48 233.718 1087.96 280.058 1074.31 324.904C1074.66 326.432 1076.06 326.968 1077.36 326.537C1078.1 326.125 1078.76 325.871 1079.5 325.488C1106.36 241.725 1105.01 150.158 1088.7 62.078C1090.79 59.8052 1093.54 56.144 1091.75 52.131C1088.01 35.2041 1083.68 18.2931 1078.83 1.57541C1077.7 1.16333 1076.53 0.580079 1075.36 0.0665664H832.659C838.818 15.5227 844.407 31.2133 849.37 46.9864C855.992 72.5606 860.899 98.5342 864.186 124.663C865.201 138.623 865.667 152.605 865.72 166.673C865.175 167.085 864.497 167.598 863.917 168.071C863.838 173.2 863.685 178.442 863.479 183.619C862.538 184.462 861.064 184.116 860.053 183.273C860.123 163.005 859.882 142.855 857.495 122.536C854.217 97.5294 849.475 72.7888 843.177 48.3019C838.244 32.0692 832.659 15.9474 826.38 0.0665664V0L794.123 0.0665664Z" fill="#DA3131"/>
<path fill-rule="evenodd" clip-rule="evenodd" d="M889.51 41.9478L889.098 42.2013C889.139 42.1696 889.209 42.1696 889.257 42.1284C889.288 42.1094 889.317 42.1094 889.393 42.0365C889.425 42.008 889.463 42.008 889.51 41.9478Z" fill="#131614"/>
<path fill-rule="evenodd" clip-rule="evenodd" d="M871.555 319.776L871.086 319.193C871.197 319.459 871.339 319.598 871.555 319.776Z" fill="#131614"/>
<path fill-rule="evenodd" clip-rule="evenodd" d="M849.272 143.719C851.095 143.149 853.152 142.334 855.272 141.577C855.91 141.726 857.184 141.976 858.458 142.236C858.579 143.647 858.753 144.924 858.905 145.808L859.035 146.36L859.194 148.176V148.763C857.618 149.723 856.116 150.715 854.626 151.907C853.716 151.299 852.867 150.665 851.995 150.04C851.995 150.04 850.73 149.111 849.668 148.366C849.396 147.187 849.24 145.986 849.24 144.727C849.24 144.411 849.24 144.075 849.272 143.719ZM849.32 137.621C849.32 137.491 849.57 135.719 849.824 133.576C852.036 133.291 853.786 132.983 855.998 132.765C855.567 134.939 855.203 137.18 854.838 139.428L854.807 139.954C852.939 140.578 850.984 141.285 849.288 141.865C849.288 141.035 849.288 138.217 849.32 137.621ZM869.432 154.012C875.182 160.719 884.267 164.704 897.079 166.083C899.847 167.826 901.552 170.359 902.658 172.99C902.376 172.891 902.116 172.879 901.863 172.752L901.552 172.587L901.016 172.562L891.472 170.815C886.226 169.68 880.745 168.561 874.707 168.561C869.03 162.78 862.687 157.8 856.407 153.219C858.246 151.78 860.081 150.509 861.983 149.305C862.319 149.336 862.623 149.4 862.899 149.473C863.676 151.66 864.817 154.836 864.817 154.836C864.817 154.836 867.461 154.342 869.432 154.012ZM1125.78 182.613C1125.78 182.613 1124.24 181.688 1122.83 180.87C1123.19 180.195 1123.6 179.542 1123.6 178.426C1123.6 178.188 1123.6 177.944 1123.54 177.649H1123.51L1123.79 175.906L1121.86 174.134C1105.42 164.387 1085.87 160.621 1065.31 163.334C1065.16 163.334 1064.54 163.458 1064.54 163.458C1061.98 163.914 1059.57 164.453 1057.16 165.005H1057.13C1049.19 166.897 1042.23 169.487 1036.45 172.587L1036.16 172.752L1034.28 174.277C1027.09 179.862 1018.47 185.77 1015.04 194.747C1014.84 195.052 1012.09 200.995 1012.09 200.995C1009.5 205.699 1009.8 208.774 1005.41 210.086C1003.87 210.264 1001.24 210.844 999.484 205.826C999.424 205.699 999.414 205.572 999.367 205.411C999.338 205.271 999.297 205.135 999.249 205.011C993.956 186.601 973.101 165.005 968.73 161.407C965.19 158.504 980.547 151.907 980.547 151.907L984.329 160.345C984.329 160.345 985.908 154.814 989.835 143.054C989.835 143.054 994.365 147.701 1001.46 157.4C1003.26 153.853 1003.09 139.488 1001.24 129.379C1003.55 129.379 1005.22 129.446 1018.64 133.576C1015.77 128.485 1011.14 121.264 1007.75 115.438C1007.58 115.296 1007.43 115.159 1007.08 114.877C1007.26 114.811 1007.5 114.681 1007.5 114.681C1007.53 114.681 1007.54 114.681 1007.58 114.681C1010.91 112.887 1017.87 110.116 1022.36 107.362L1010.71 105.59C1007.75 104.762 1004.75 103.444 1001.6 101.51L1001.87 101.741C1001.51 101.51 1000.99 101.174 1000.52 100.851C1002.26 99.3545 1004.04 97.7569 1005.56 95.7663C1010.88 87.5184 1013.68 77.2228 1013.68 67.0635C1013.68 60.0898 1012.39 53.2081 1009.8 46.9604L1009.67 46.6593L1009.56 46.4215C1006.88 42.0599 1002.26 39.8885 996.932 40.3767H996.495L996.022 40.5732C983.571 45.347 973.33 53.0306 966.844 62.3373C963.408 60.5051 959.205 58.6729 954.729 58.2101C955.48 57.1578 956.114 55.9279 956.114 54.5712C956.114 53.6171 955.797 52.6344 955.005 51.5915L954.206 50.5867L952.891 50.2951C948.637 49.509 943.91 50.9322 939.229 53.9657C935.479 52.8404 928.898 51.563 923.62 55.4207L921.325 57.0658C921.325 57.0658 921.531 57.5984 921.75 58.0421C917.09 51.5345 910.215 45.8415 902.116 42.1264L901.98 42.0599L901.435 41.895L899.752 41.3752C897.27 40.4464 893.266 39.0485 889.453 41.6795C889.374 41.7746 889.335 41.7746 889.304 41.8031C889.228 41.838 889.199 41.8728 889.167 41.895C884.574 44.5482 883.956 49.043 883.43 52.7771L882.834 56.5301C881.728 60.9108 881.329 65.0538 881.329 68.883C881.329 73.6853 881.931 78.1072 882.638 82.472V82.4974C882.834 83.5022 883.015 84.5546 883.199 85.5246C883.199 85.5246 883.319 85.9747 883.383 86.2885C881.459 88.2792 861.286 108.874 861.286 108.874L861.165 109.863C861.096 110.148 861.054 110.55 861.054 110.985C861.054 112.196 861.482 113.609 862.899 114.681C862.744 114.903 862.522 115.159 862.43 115.296C862.427 115.324 862.427 115.346 862.373 115.394H862.357L862.325 115.438C862.325 115.438 862.319 115.476 862.252 115.514C859.574 119.052 857.869 124.168 856.613 129.747C856.509 130.235 856.407 130.72 856.312 131.176C854.062 131.37 852.201 131.589 850.023 131.839C850.394 128.91 850.765 125.892 850.765 125.892V125.658C850.765 125.617 851.26 124.168 851.26 124.168L851.947 122.748L852.036 122.047C852.21 121.325 852.366 120.25 852.366 119.141C852.366 117.394 851.947 115.438 850.207 114.031L849.449 113.381L848.416 113.238C844.273 112.665 840.358 113.571 837.078 115.933C837.258 115.831 837.417 115.765 837.566 115.698L836.571 116.262C836.78 116.139 836.938 116.047 837.078 115.933C833.664 117.28 831.581 119.927 830.053 122.675C828.636 120.51 826.96 118.133 824.573 116.047L824.414 115.866L820.981 113.657C817.279 111.213 813.079 108.468 807.135 108.991C807.066 108.991 806.929 109.029 806.796 109.029C804.175 109.14 802.59 111.146 801.845 112.224L800.856 113.419L800.691 114.554C800.691 114.877 800.65 115.159 800.65 115.438C800.65 117.245 801.189 118.735 801.908 120.038C799.55 120.25 797.182 120.97 795.179 123.192L794.668 123.784L794.44 124.501C794.212 125.309 794.069 126.038 794.069 126.758C794.069 128.485 794.798 129.959 795.705 131.306C794.83 131.68 793.946 132.194 793.166 133.132L792.637 133.896L792.494 134.787C792.389 135.243 792.383 135.7 792.383 136.137C792.383 140.55 795.705 143.428 798.187 145.587L800.501 147.748L800.989 148.088C804.191 149.847 806.85 152.861 809.693 155.99C812.616 159.296 815.605 162.78 819.615 165.106C824.573 167.858 827.4 167.886 830.244 167.639H831.194C837.417 177.649 843.306 187.07 855.317 195.121C864.947 201.563 874.051 203.433 882.92 205.271L891.317 207.154L895.907 208.188C895.907 208.188 896.534 208.413 896.953 208.552C895.742 213.998 895.599 220.014 894.845 226.271C893.025 242.384 904.871 262.468 913.407 268.186C917.978 271.229 916.006 273.4 915.166 275.252C914.057 277.632 914.057 278.529 907.619 279.553C882.343 282.501 868.205 291.506 861.368 298.499C851.142 308.896 862.972 311.942 862.972 311.942C863.013 311.99 863.045 312.066 863.051 312.164C863.549 313.213 863.549 316.212 869.251 316.295C869.347 316.529 869.432 316.688 869.432 316.688C869.432 316.688 871.248 319.173 871.588 319.613C871.572 319.588 871.527 319.588 871.527 319.566L871.654 319.712C873.22 321.648 876.016 321.163 891.218 318.06C899.79 316.323 910.447 314.18 917.604 313.359C917.931 313.337 924.657 312.133 924.657 312.133C933.475 310.751 942.541 309.318 949.502 302.005L949.664 301.85L949.797 301.615C949.797 301.615 949.797 301.606 949.813 301.606C949.613 303.688 949.321 305.809 949.321 305.809C949.613 310.89 952.761 315.062 958.739 318.437C963.123 320.891 967.665 322.251 972.122 323.5L980.966 326.498L981.419 326.6C983.869 327.097 986.437 328.055 989.144 329.091C995.655 331.567 1003.09 334.372 1011.06 330.388C1011.06 330.388 1012.62 329.215 1012.76 328.787C1013.01 328.85 1013.3 328.882 1013.3 328.882C1014.76 329.158 1017.16 329.405 1018.47 328.457C1019.74 327.516 1020.29 327.021 1020.29 327.021C1020.59 326.888 1021.73 326.913 1022.5 326.913H1022.57C1022.82 326.913 1023.06 326.913 1023.3 326.913C1029.24 326.695 1030.5 323.915 1030.53 323.557C1030.89 323.474 1031.31 323.382 1031.31 323.382C1031.31 323.382 1035.41 322.368 1036.3 320.472C1036.74 319.521 1036.89 318.536 1036.89 317.705C1036.89 315.474 1035.74 313.562 1035.24 312.703L1035.04 312.354L1034.74 312.085C1025.4 302.423 1013.73 298.036 1002.46 293.843C1002.46 293.843 991.347 289.351 990.418 288.974C987.141 286.248 986.76 281.493 986.76 276.234C986.76 275.641 986.773 275.046 986.773 274.38C986.773 274.38 986.703 271.971 986.703 270.522C987.052 270.091 987.372 269.635 987.372 269.635C991.461 263.799 995.686 257.713 998.073 250.809C998.181 250.41 998.673 248.001 998.673 248.001C998.774 247.392 998.983 246.948 999.107 246.422C999.931 246.828 1000.91 247.313 1000.91 247.313C1003.12 248.568 1005.67 250.048 1008.69 250.739C1020.83 253.339 1033.85 250.308 1045.66 242.26C1054.86 236.589 1061.2 228.623 1067 220.642C1067.84 219.507 1068.68 218.344 1069.48 217.193C1075.5 208.866 1081.17 200.913 1089.57 195.328C1096.96 189.52 1107.64 189.866 1117.91 190.278L1124.21 190.446L1125.16 189.685C1126.48 188.674 1127.13 187.222 1127.13 185.396V183.377L1125.78 182.613Z" fill="white"/>
<path fill-rule="evenodd" clip-rule="evenodd" d="M915.224 134.015C927.073 132.439 939.267 131.837 951.297 132.756C955.776 133.073 960.15 133.6 964.49 134.373C964.781 134.015 965.225 133.891 965.108 133.511C964.781 133.039 964.268 133.039 963.891 132.538C949.626 130.059 932.465 129.815 917.681 132.566C917.075 132.69 916.46 132.785 915.82 132.95L915.224 134.015Z" fill="white"/>
<path fill-rule="evenodd" clip-rule="evenodd" d="M939.307 146.131C939.12 145.912 938.85 145.76 938.955 145.526C933.322 141.481 926.583 140.007 920.431 137.284C918.738 137.186 915.023 135.829 914.738 138.387C921.404 139.148 927.439 141.481 933.094 144.318C935.04 145.313 937.481 147.32 939.307 146.131Z" fill="white"/>
<path fill-rule="evenodd" clip-rule="evenodd" d="M862.396 115.539C862.339 115.603 862.339 115.603 862.323 115.603H862.339C862.393 115.603 862.393 115.539 862.393 115.539" fill="#131614"/>
<path fill-rule="evenodd" clip-rule="evenodd" d="M932.865 215.94C932.58 215.787 932.51 215.398 932.675 215.122C933.357 214.073 933.493 213.562 933.493 213.28C933.499 213.036 933.325 212.716 933.081 211.984H933.097C932.976 211.711 933.113 211.356 933.388 211.226C933.702 211.14 934.048 211.261 934.168 211.581C934.381 212.174 934.669 212.618 934.701 213.28C934.669 213.974 934.355 214.678 933.702 215.759C933.566 215.94 933.388 216.038 933.198 216.038C933.097 216.038 932.986 215.993 932.865 215.94Z" fill="white"/>
<path fill-rule="evenodd" clip-rule="evenodd" d="M931.544 224.777C931.376 224.489 931.439 224.156 931.721 223.96C932.225 223.62 932.396 222.98 932.396 222.175C932.396 221.623 932.352 221.088 932.241 220.619C932.165 220.27 932.365 219.991 932.682 219.896C933.024 219.826 933.325 220.007 933.395 220.34C933.499 220.894 933.585 221.525 933.585 222.175C933.604 223.132 933.332 224.28 932.358 224.949C932.266 224.999 932.165 225.044 932.022 225.044C931.867 225.044 931.645 224.949 931.544 224.777Z" fill="white"/>
<path fill-rule="evenodd" clip-rule="evenodd" d="M929.674 234.592C929.449 234.37 929.449 233.984 929.665 233.733C930.22 233.194 930.565 232.313 930.565 231.47C930.565 231.026 930.495 230.636 930.337 230.259C930.245 229.974 930.391 229.628 930.66 229.505C930.999 229.362 931.351 229.543 931.453 229.847C931.643 230.357 931.735 230.89 931.735 231.47C931.735 232.605 931.31 233.762 930.502 234.592C930.41 234.719 930.245 234.789 930.102 234.789C929.925 234.789 929.801 234.719 929.674 234.592Z" fill="white"/>
<path fill-rule="evenodd" clip-rule="evenodd" d="M1090.45 170.388L1089.83 170.885C1095.5 175.437 1091.53 182.538 1091.06 187.676C1094.26 184.734 1099.93 187.793 1102.24 182.642C1103.85 179.701 1103.85 176.128 1102.52 172.936C1098.69 171.744 1094.34 171.411 1090.45 170.388Z" fill="#FFFFFE"/>
<path fill-rule="evenodd" clip-rule="evenodd" d="M944.741 276.181C943.61 284.277 948.627 294.068 943.61 300.582C940.37 305.942 916.114 308.222 916.114 308.222C902.503 310.076 889.069 313.227 875.797 315.981C871.521 316.875 880.178 305.53 886.093 305.058C889.07 304.795 888.397 301.983 886.632 302.078C881.582 303.559 876.431 305.901 873.363 310.979C872.139 311.692 870.418 312.168 868.916 311.566C867.467 310.716 868.44 309.103 868.916 307.99C871.807 303.781 876.384 302.741 879.63 301.004C878.758 298.186 877.167 299.821 875.224 300.582C870.776 302.332 867.578 306.415 863.999 308.979C862.849 309.033 862.541 308.979 862.161 307.99C863.625 303.315 866.171 301.73 869.527 298.462C878.194 289.989 894.82 287.091 898.189 286.473C904.44 285.12 911.211 284.47 917.611 283.513C920.628 280.318 920.397 275.724 921.516 271.715C922.273 268.878 927.066 270.871 932.065 270.621C936.271 270.497 940.202 269.901 943.86 268.523C948.165 269.391 944.478 273.569 944.741 276.181Z" fill="#FFFFFE"/>
<path fill-rule="evenodd" clip-rule="evenodd" d="M843.262 175.603C839.322 171.41 837.594 166.208 833.55 162.005C817.212 166.056 812.448 145.934 799.392 139.889C799.037 139.046 797.569 138.19 798.567 136.966C805.887 134.018 811.675 141.715 816.518 146.444C817.044 146.444 817.945 146.279 817.945 145.515V144.697C813.275 139.394 807.538 136.453 802.349 131.051C801.087 129.723 799.392 128.433 800.647 126.652C803.836 124.296 807.021 127.26 810.343 127.612C815.716 129.6 817.71 134.719 820.056 139.394C821.13 139.806 821.412 138.545 822.145 138.19C819.174 133.353 817.84 127.862 813.275 123.685C810.454 121.957 807.975 120.096 806.166 117.275C806.245 115.034 807.329 115.519 808.505 115.196C812.816 114.099 820.458 119.459 824.75 125.146C826.208 127.32 832.342 132.541 828.059 136.716C827.768 137.594 828.148 138.326 828.862 138.792C829.778 137.905 830.935 136.646 831.879 135.213C831.952 135.09 832.041 134.944 832.13 134.811C832.773 133.8 833.268 132.76 833.55 131.679C832.96 128.962 833.933 127.2 835.401 124.915C837.975 120.978 842.27 119.751 846.33 119.909C847.456 120.657 846.505 121.726 846.33 122.544C844.958 125.533 844.492 127.666 844.175 132.788C840.419 133.299 837.477 133.93 833.673 134.662C833.268 134.719 832.928 134.944 832.726 135.213C832.653 135.283 832.599 135.353 832.583 135.41C832.542 135.461 832.526 135.505 832.472 135.638C832.209 136.389 832.653 137.239 833.772 137.09C837.372 136.389 840.466 135.312 844.105 134.592C844.01 135.698 843.95 136.966 843.902 138.326C843.798 140.317 843.509 142.387 843.31 144.339C841.642 145.005 840.051 145.75 838.251 146.622C838.251 146.622 834.57 148.216 832.96 149.081C831.375 149.972 832.374 151.877 833.997 151.021C835.433 150.188 839.274 148.422 839.274 148.422C840.669 147.731 841.931 147.069 843.186 146.469C843.154 149.335 843.757 151.741 846.33 153.167C856.024 158.508 864.902 166.056 872.865 175.02C885.021 175.02 897.596 176.003 907.892 181.566C908.209 182.254 908.367 182.989 908.367 183.709C908.367 186.07 906.776 188.356 906.148 190.638C903.742 194.832 903.555 200.861 901.153 204.122C879.636 200.61 857.52 195.079 843.262 175.603Z" fill="#FFFFFE"/>
<path fill-rule="evenodd" clip-rule="evenodd" d="M1069.6 172.859C1071.52 174.228 1081.52 187.646 1073.11 202.738C1069.6 207.039 1067.14 211.965 1063.18 216.295L1062.59 215.601C1065.64 205.074 1064.17 191.973 1059.25 183.579C1056.34 178.583 1046.99 174.713 1046.99 174.713C1053.98 172.719 1062.59 166.855 1069.6 172.859Z" fill="#FFFFFE"/>
<path fill-rule="evenodd" clip-rule="evenodd" d="M1047.27 206.83C1049.2 216.283 1049.58 227.292 1044.92 236.021C1038.93 240.697 1031.9 243.794 1024.9 244.871C1028.24 237.416 1030.89 227.941 1027.84 219.795C1024.03 213.696 1016.18 214.248 1010.15 214.799V213.94C1016.04 210.235 1015.71 202.754 1022.17 200.291C1027.63 197.108 1035.72 196.224 1041.37 199.812C1044.2 201.286 1046.04 204.247 1047.27 206.83Z" fill="#FFFFFE"/>
<path fill-rule="evenodd" clip-rule="evenodd" d="M1029.47 315.285C1029.95 316.335 1032.08 318.005 1030.11 318.626C1026.28 318.734 1023.66 314.344 1020.38 312.737C1018.16 312.252 1016.07 308.214 1013.85 310.927C1015.12 313.219 1018.36 313.732 1020.38 315.415C1023.27 317.783 1028.21 320.341 1025.62 321.581C1018.87 324.887 1017.95 317.527 1011.55 313.827C1009.45 312.67 1007 309.374 1005 311.507C1005.53 314.56 1008.6 314.303 1010.63 315.916C1013.7 318.379 1019.01 320.373 1016.23 324.164C1012.84 324.037 1009.98 322.763 1007.6 320.085C1004.32 316.408 1000.97 312.195 996.413 310.927C996.413 310.927 995.16 310.581 995.563 311.872C995.966 313.209 1007.5 319.115 1007.6 326.285C1004.67 327.733 1001.21 328.111 998.251 326.595C984.763 321.581 970.084 319.241 957.871 311.507C955.392 309.155 954.13 306.134 955.122 302.641C956.146 293.937 958.555 284.237 956.019 275.469C954.428 272.414 952.457 267.792 948.653 266.797C953.303 261.015 954.669 254.846 954.498 247.213C954.498 245.644 954.466 243.945 954.238 242.478C956.657 243.295 958.508 244.275 959.246 244.551C962.926 246.075 977.609 251.981 988.881 249.004C989.512 248.811 991.132 247.885 993.04 246.392C990.805 254.127 986.554 261.265 981.451 267.862C979.727 275.083 980.741 283.02 982.871 289.952C985.09 294.631 995.056 296.485 1001.47 299.062C1010.02 302.096 1023.2 310.068 1029.47 315.285Z" fill="#FFFFFE"/>
<path fill-rule="evenodd" clip-rule="evenodd" d="M914.28 79.7496L912.213 79.4104C910.099 81.1158 905.461 81.7402 906.292 85.319C908.393 85.1668 909.87 83.2903 912.213 83.5692C913.455 82.5739 914.169 81.2331 914.28 79.7496ZM952.669 81.2331C954.733 81.7402 956.828 84.3015 959.006 82.7261C957.412 78.3961 952.267 77.8255 948.488 76.1772C947.094 77.2961 946.358 78.5292 946.745 80.317C948.327 82.3172 950.571 79.9747 952.669 81.2331ZM1004.22 109.188L1005.06 110.098C1002.99 112.323 998.955 110.966 996.477 110.098C985.208 102.984 975.251 92.5177 961.957 90.0896C953.437 87.484 943.765 86.0512 935.422 90.0896C931.736 92.8981 928.446 96.1535 927.599 101.514C926.392 108.792 929.625 115.011 936.025 118.361C939.635 121.04 945.1 119.179 948.676 121.04C937.759 122.022 926.239 123.262 916.293 127.769C915.918 128.311 915.117 128.562 915.117 129.294L909.591 129.354C909.262 126.571 908.013 124.035 905.461 122.152C902.098 121.04 897.736 120.377 893.692 120.704L893.587 118.615C902.298 117.832 913.75 121.683 918.752 112.45C921.212 108.002 922.651 101.989 920.692 96.8382C917.589 88.977 909.851 87.9373 901.901 88.6315C899.011 89.0943 897.15 89.7821 894.158 90.9645C883.085 95.3103 876.834 101.77 870.545 110.345C869.858 111.052 867.972 111.217 867.354 110.722L891.314 86.4887L892.452 85.319C895.876 82.1935 898.358 80.9827 900.649 78.9001C908.859 73.4638 916.654 67.2129 926.078 64.658C927.479 64.4361 928.652 65.5044 929 66.7343C928.896 70.8836 923.954 74.5828 927.599 78.9001C929.752 77.8255 930.503 74.9822 932.427 73.2134C937.502 68.2209 943.382 65.1303 949.702 63.165C957.77 64.0209 965.514 66.6106 971.188 73.2134C972.218 74.0724 973.162 74.9822 974.044 75.9363C980.561 82.9797 983.252 92.6413 990.581 99.7861C994.657 103.381 998.695 108.253 1004.22 109.188Z" fill="#FFFFFE"/>
<path fill-rule="evenodd" clip-rule="evenodd" d="M1003.56 48.8171C1011.59 61.9941 1007.96 80.8831 1000.88 93.6765C998.664 95.7306 996.686 98.352 993.856 98.9163C993.444 98.8592 993.133 98.6975 992.873 98.5137C992.036 97.8765 991.703 96.7417 990.974 95.9905C991.415 93.4356 995.203 90.9917 996.445 88.0374C1001.08 82.1161 1001.24 74.3754 999.764 67.1133C998.037 65.1576 995.596 66.8851 993.497 66.7615C988.457 69.9503 983.411 73.2406 978.748 77.4787C977.369 76.8764 976.238 75.8367 975.182 74.7653C973.448 72.8571 971.914 70.6414 969.911 69.478C974.003 56.9414 987.38 50.6873 998.284 46.5094C1000.52 46.0974 1001.86 47.9676 1003.56 48.8171Z" fill="#FFFFFE"/>
<path fill-rule="evenodd" clip-rule="evenodd" d="M931.847 231.441C931.847 230.873 931.778 230.331 931.552 229.808C931.448 229.52 931.08 229.368 930.776 229.475C930.497 229.586 930.354 229.935 930.459 230.236C930.576 230.594 930.655 231.01 930.655 231.441C930.655 232.258 930.332 233.181 929.793 233.723C929.556 233.973 929.556 234.344 929.793 234.538C929.882 234.661 930.075 234.734 930.193 234.734C930.354 234.734 930.497 234.661 930.608 234.538C931.432 233.723 931.816 232.572 931.847 231.441ZM932.453 224.914C933.492 224.248 933.765 223.11 933.705 222.09C933.705 221.456 933.619 220.86 933.508 220.264C933.451 219.985 933.144 219.795 932.798 219.849C932.516 219.918 932.335 220.166 932.335 220.416V220.54C932.453 221.025 932.516 221.589 932.516 222.09C932.516 222.936 932.323 223.583 931.816 223.912C931.553 224.096 931.48 224.467 931.654 224.733C931.778 224.914 931.965 224.965 932.161 224.965C932.282 224.965 932.399 224.942 932.453 224.914ZM934.811 213.278C934.811 212.612 934.497 212.146 934.285 211.531C934.174 211.249 933.825 211.109 933.508 211.23C933.277 211.315 933.176 211.512 933.176 211.756C933.176 211.854 933.175 211.883 933.179 212.006C933.492 212.672 933.619 213.03 933.619 213.278C933.619 213.531 933.492 214.067 932.798 215.103C932.643 215.351 932.7 215.74 933.039 215.893C933.087 215.962 933.213 215.988 933.302 215.988C933.508 215.988 933.705 215.893 933.825 215.74C934.443 214.634 934.811 213.94 934.811 213.278ZM995.621 206.928C999.805 218.314 998.594 226.423 997.358 231.041C996.845 232.988 996.147 234.804 995.339 236.405C994.987 236.804 994.651 237.197 994.318 237.558C992.426 239.438 989.218 242.38 987.142 243.201C982.638 245.065 977.41 244.234 974.837 243.667C973.578 243.35 972.317 243.169 971.064 242.922C968.586 242.38 962.88 240.487 962.341 240.25C961.241 239.825 952.752 234.924 939.119 237.558C937.832 237.764 933.302 237.482 932.7 237.416C927.692 236.88 926.944 236.503 923.625 234.734C918.693 232.258 920.005 225.412 921.358 225.412C922.699 225.412 924.265 226.613 924.56 225.269C924.56 224.648 925.749 223.865 921.213 222.974C919.403 221.329 919.748 216.942 921.669 216.942C923.539 216.942 925.39 218.314 925.39 216.438C925.162 215.962 922.579 215.487 921.517 214.415C920.921 213.873 917.891 200.922 937.344 209.86C939.262 210.761 939.084 207.096 939.747 203.4C940.171 201.59 941.072 199.378 942.33 197.289V197.264C944.672 193.374 948.242 190.141 951.789 191.479C955.919 193.124 951.687 198.696 949.852 202.199C947.566 206.488 945.994 220.514 956.756 221.716C958.689 221.934 965.904 222.09 967.765 222.09C973.553 222.09 970.497 216.695 968.865 210.761C967.609 206.332 966.348 201.961 965.318 197.416C964.398 192.934 963.793 190.084 964.997 185.285C963.251 183.548 962.246 187.202 962.046 187.716C960.788 191.479 967.235 212.612 968.969 219.696C968.525 220.166 961.241 219.544 959.419 219.544C956.822 219.544 954.556 217.785 953.776 216.78C950.644 212.824 951.789 207.191 952.175 205.515C953.542 199.181 958.832 196.1 955.26 190.759C953.272 187.789 946.898 188.325 942.33 193.469C934.77 184.854 924.325 182.156 913.893 184.698C912.803 184.952 912.071 185.323 910.353 185.922C910.432 185.129 910.438 184.413 910.438 183.652C910.613 176.111 908.704 168.789 902.729 163.457L903.332 162.969C923.023 163.457 941.347 158.268 955.18 144.654C956.883 144.505 957.659 149.069 960.021 146.749C959.637 142.194 954.556 141.433 951.633 139.319C951.405 139.29 951.186 139.259 950.984 139.259L951.405 132.691H951.427C955.91 133.005 960.309 133.547 964.636 134.304C964.921 133.943 965.381 133.864 965.248 133.445C964.921 133.005 964.398 133.005 964.024 132.51C949.979 130.031 933.087 129.778 918.477 132.412L918.011 129.632C919.498 129.188 921.003 128.145 922.547 127.79C932.969 124.478 945.516 121.669 956.686 124.595C962.436 125.835 966.83 128.96 971.464 133.943C975.071 137.902 976.469 141.668 978.571 145.747C977.556 145.709 973.515 147.976 972.383 148.584C959.289 155.374 958.566 161.007 962.024 165.223C962.395 165.641 962.766 166.025 963.159 166.456C969.793 170.729 977.956 179.414 977.956 179.414C987.443 190.027 992.74 199.251 995.621 206.928Z" fill="#FFFFFE"/>
<path fill-rule="evenodd" clip-rule="evenodd" d="M985.451 128.008L985.565 129.333C976.487 125.424 966.182 123.906 955.753 122.169L953.683 121.056C964.099 121.208 976.392 124.128 985.451 128.008Z" fill="#FFFFFE"/>
<path fill-rule="evenodd" clip-rule="evenodd" d="M952.205 113.309C953.47 110.98 953.375 108.862 952.205 106.532C950.874 104.06 948.861 102.89 946.043 102.779C943.32 102.602 941.44 103.489 939.802 105.61C938.175 107.759 937.662 109.975 938.686 112.438C939.573 114.581 940.974 115.541 943.085 116.254C946.661 117.49 950.389 116.539 952.205 113.309ZM956.021 95.9768C958.209 98.8106 958.998 102.202 958.446 106.301C957.708 111.934 955.33 116.349 949.796 118.001C944.803 119.449 937.919 118.498 933.966 114.641C930.894 111.065 928.796 107.483 929.468 102.469C930.232 96.7629 933.864 92.6548 938.933 91.1998C945.219 88.8637 951.577 91.3298 956.021 95.9768Z" fill="#FFFFFE"/>
<path fill-rule="evenodd" clip-rule="evenodd" d="M939.297 146.095C939.094 145.861 938.837 145.734 938.964 145.474C933.277 141.42 926.58 139.933 920.408 137.223C918.722 137.128 915.022 135.78 914.753 138.37C921.397 139.09 927.448 141.42 933.062 144.282C935.027 145.252 937.471 147.315 939.297 146.095ZM948.667 140.45C948.458 142.9 953.225 141.654 952.639 144.282C941.899 154.213 928.621 158.889 915.102 160.797C895.623 163.288 872.578 156.609 870.629 144.558C873.52 143.106 876.705 141.6 879.739 140.878C880.576 140.729 881.067 139.841 880.173 140.063C877.362 140.754 873.545 141.848 870.477 143.106C870.369 141.198 870.477 139.568 870.829 138.044C873.71 137.543 876.804 136.82 879.498 136.056C879.926 135.961 879.749 135.359 879.292 135.394C876.835 135.641 873.957 136.113 871.193 136.56C871.716 134.795 872.486 133.238 873.545 131.761C875.143 131.695 876.804 131.663 878.877 131.663C879.593 131.663 879.593 130.924 878.877 130.924C877.124 130.924 875.659 130.886 874.192 130.813C875.361 129.324 876.705 127.875 878.252 126.331C882.709 121.808 886.855 118.682 892.605 118.682C892.897 118.654 893.182 118.622 893.483 118.622H893.556L893.661 120.711C891.553 120.895 889.477 121.339 887.727 122.16C883.296 123.865 883.077 128.633 882.928 132.211C884.757 137.888 889.822 141.933 895.132 144.282C902.108 145.984 905.671 138.24 909.231 133.682C909.567 132.211 909.688 130.788 909.561 129.362L915.086 129.301C915.086 129.362 915.086 129.425 915.102 129.526C915.84 129.856 916.585 129.923 917.336 129.802C917.517 129.802 917.748 129.742 917.986 129.618L918.452 132.398C918.249 132.427 918.018 132.497 917.828 132.525L915.926 132.88L915.374 133.929C927.207 132.398 939.335 131.796 951.38 132.677L950.959 139.245C950.001 139.245 949.165 139.822 948.667 140.45Z" fill="#FFFFFE"/>
<path fill-rule="evenodd" clip-rule="evenodd" d="M951.699 249.423C951.709 250.114 951.775 250.78 951.708 251.445C951.598 256.27 949.052 263.107 946.586 264.391C943.01 266.188 930.464 270.395 921.085 266.464C914.983 263.976 910.976 259.687 908.165 255.287H908.196C907.195 253.658 900.788 242.852 900.319 233.973C898.582 217.956 903.648 203.955 908.554 190.318C913.068 185.792 919.842 186.068 925.643 186.775C930.036 187.469 936.912 190.499 940.849 195.244C940.154 196.252 939.549 197.359 939.039 198.62C936.43 204.881 937.821 207.274 934.252 206.488C933.412 206.332 930.696 205.822 928.946 205.423C925.082 204.592 920.134 203.53 919.129 210.428C919.021 211.315 919.497 214.026 919.497 214.923C919.497 216.599 915.87 218.34 919.322 224.096C919.725 224.733 916.013 229.665 919.617 235.298C921.782 238.674 930.182 243.201 944.465 240.998C946.7 240.614 949.1 240.972 951.309 241.511C951.515 243.835 951.626 247.264 951.699 249.423Z" fill="#FFFFFE"/>
<path fill-rule="evenodd" clip-rule="evenodd" d="M918.251 97.491C920.4 103.257 919.275 110.909 913.813 114.76C915.49 113.375 916.311 111.245 916.206 109.172C916.206 106.141 915.078 104.148 912.989 103.076C911.132 102.553 908.139 102.16 906.504 103.257C903.679 104.538 902.836 107.118 902.947 110.063C903.074 112.405 904.754 114.608 906.684 115.622C908.165 116.066 910.047 116.567 911.991 115.832C912.33 115.714 912.637 115.597 912.91 115.394C912.865 115.458 912.821 115.502 912.758 115.534C908.624 117.867 904.345 117.483 900.563 116.247C896.614 114.386 893.295 110.351 893.209 105.951C892.842 101.52 894.344 97.0853 897.65 93.8806C900.478 91.6744 905.711 90.0673 909.765 91.126C913.439 92.4003 916.666 93.1896 918.251 97.491Z" fill="#FFFFFE"/>
<path fill-rule="evenodd" clip-rule="evenodd" d="M906.534 51.1652C911.219 54.9721 917.496 59.2577 918.754 65.0268C913.156 67.6673 908.031 71.4457 902.737 74.5078C901.143 69.5787 899.307 61.9204 892.454 62.3293C888.394 67.2489 889.424 76.5967 890.308 84.2107C890.961 84.4674 890.207 85.0697 890.102 85.355C888.241 85.4501 888.653 82.9744 887.76 81.8777C885.835 70.4346 887.018 59.2577 890.102 48.8258C895.164 43.4625 901.796 48.2965 906.534 51.1652Z" fill="#FFFFFE"/>
<path fill-rule="evenodd" clip-rule="evenodd" d="M872.617 130.82L871.936 131.87C870.021 131.98 868.113 132.076 865.564 132.076C864.074 132.076 862.572 132.307 861.025 132.503L861.294 130.931C862.534 130.82 863.653 130.722 865.108 130.722C868.062 130.694 870.29 130.722 872.617 130.82Z" fill="#FFFFFE"/>
<path fill-rule="evenodd" clip-rule="evenodd" d="M869.981 136.716L869.462 138.307C867.214 138.741 865.261 138.874 863.135 139.302L863.325 137.692C865.55 137.22 867.575 137.071 869.981 136.716Z" fill="#FFFFFE"/>
<path fill-rule="evenodd" clip-rule="evenodd" d="M869.439 143.531L869.645 145.078C869.217 145.341 868.355 145.845 868.006 146.105L867.191 144.663C867.813 144.305 868.577 143.918 869.439 143.531Z" fill="#FFFFFE"/>
<path fill-rule="evenodd" clip-rule="evenodd" d="M298.281 312.431L193.594 191.515L291.098 76.8367H198.951L148.751 140.379L98.55 76.8367H6.40306L102.893 192.307L0 312.431H95.9476L148.751 243.75L202.333 312.431H298.281Z" fill="white"/>
<path fill-rule="evenodd" clip-rule="evenodd" d="M348.846 316.624H439.385C418.761 296.591 397.85 266.927 397.524 216.457L397.448 1.2345H316.339L316.434 215.478C316.263 278.548 340.136 308.392 348.846 316.624Z" fill="#FFFFFE"/>
<mask id="mask1_2005_55" style="mask-type:luminance" maskUnits="userSpaceOnUse" x="0" y="1" width="1097" height="499">
<path d="M0 1.03784H1096.95V499.543H0V1.03784Z" fill="#FFFFFE"/>
</mask>
<g mask="url(#mask1_2005_55)">
<path fill-rule="evenodd" clip-rule="evenodd" d="M571.082 248.274C544.125 248.191 522.376 226.231 522.442 199.189C522.515 172.166 544.397 150.322 571.348 150.401C598.257 150.478 620.022 172.438 619.944 199.461C619.874 226.5 597.998 248.347 571.082 248.274ZM697.876 81.0296H616.486L616.505 91.2808C602.208 82.9156 587.042 79.2925 566.914 79.2318C500.8 79.0484 447.056 132.657 446.879 198.979C446.687 265.334 500.14 319.234 566.253 319.414C586.334 319.465 596.722 318.039 613.367 309.306C601.923 343.359 563.946 350.9 540.509 353.671C540.509 353.671 534.021 354.771 523.82 353.636L523.763 424.241C532.286 424.631 541.928 424.067 541.928 424.067C613.127 424.257 697.573 373.948 697.845 272.152L697.876 81.0296Z" fill="#FFFFFE"/>
</g>
<mask id="mask2_2005_55" style="mask-type:luminance" maskUnits="userSpaceOnUse" x="0" y="1" width="1097" height="499">
<path d="M0 1.03784H1096.95V499.543H0V1.03784Z" fill="#FFFFFE"/>
</mask>
<g mask="url(#mask2_2005_55)">
<path fill-rule="evenodd" clip-rule="evenodd" d="M297.192 316.623L192.82 195.707L290.031 81.0282H198.161L148.112 144.571L98.0621 81.0282H6.19238L102.392 196.499L-0.191406 316.623H95.4675L148.112 247.943L201.533 316.623H297.192Z" fill="#FFFFFE"/>
</g>
<mask id="mask3_2005_55" style="mask-type:luminance" maskUnits="userSpaceOnUse" x="0" y="1" width="1097" height="499">
<path d="M0 1.03784H1096.95V499.543H0V1.03784Z" fill="#DA3131"/>
</mask>
<g mask="url(#mask3_2005_55)">
<path fill-rule="evenodd" clip-rule="evenodd" d="M791.571 1.10441C793.84 7.01933 795.872 12.7916 797.838 18.64C798.909 20.1615 803.115 21.0491 802.783 19.9713C799.895 10.2272 801.601 12.6997 803.447 11.9738C808.248 26.2539 812.46 40.5975 816.11 55.2231C822.548 81.91 827.102 108.917 829.712 136.19C830.49 151.916 830.616 167.711 830.142 183.507C829.99 186.233 832.509 188.379 834.57 190.23C833.843 204.989 832.519 219.801 830.717 234.408C826.369 256.708 820.8 278.802 814.028 300.404C805.239 328.546 792.288 355.81 778.152 381.248C777.403 383.543 780.153 383.21 781.562 384.433C787.2 385.85 788.06 379.698 791.406 377.095C794.251 377.095 796.997 376.391 798.166 373.916C809.863 350.351 820.083 326.086 828.748 301.177C835.496 279.09 841.02 256.584 845.122 233.831C846.547 223.415 847.751 213.04 848.592 202.567C850.709 200.922 853.629 202.719 856.281 202.015C857.371 200.012 855.247 196.525 858.145 195.669C858.405 195.929 858.686 196.246 858.894 196.455C858.405 209.239 857.498 222.058 856.151 234.782C852.457 259.542 847.29 284.193 840.492 308.262C839.354 308.997 838.141 309.622 836.905 310.288C826.543 343.238 813.288 375.219 794.883 404.746C794.393 408.22 796.302 411.919 799.43 414.312C804.104 417.007 807.568 411.203 811.658 415.479C812.631 414.731 813.506 413.979 814.429 413.279C815.769 414.731 818.269 416.854 820.541 416.284C821.1 418.484 818.598 420.424 822.08 421.359C831.668 413.647 832.73 399.309 845.925 395.604C849.493 392.361 851.092 387.308 853.762 383.457C860.892 372.559 866.688 360.577 874.045 350.161C870.366 359.984 865.338 369.396 860.557 378.62C862.308 381.812 858.894 383.958 858.686 386.985C857.182 392.279 853.98 396.317 851.796 401.3C852.413 402.863 855.124 403.129 856.48 402.413C862.308 396.904 865.114 389.375 869.978 383.796C873.628 385.353 876.437 382.145 878.419 380.129C878.551 384.078 875.04 386.804 878.419 390.63C877.632 396.903 869.87 400.257 870.477 406.889C874.914 409.7 881.437 407.878 885.896 408.302C891.101 403.864 891.376 398.206 896.948 394.336C884.155 425.537 867.032 455.159 845.498 481.643C844.929 483.814 847.113 485.967 848.955 486.303C856.243 486.908 855.917 478.356 862.248 476.65C862.602 479.389 859.236 481.481 858.484 484.296C859.068 489.06 848.434 492.154 855.352 496.969C859.662 498.316 864.201 494.246 867.373 498.51C869.071 498.218 869.121 497.334 870.84 496.934C872.12 497.812 873.188 500.158 875.382 499.394C906.157 460.788 927.684 416.284 945.044 370.79C945.426 370.79 945.859 370.695 946.277 370.695C945.234 381.073 940.537 389.641 937.877 399.243C938.897 400.958 941.154 401.487 942.683 400.958C949.946 388.088 954.844 374.106 962.561 361.468C962.723 361.449 963.017 361.395 963.127 361.271C960.16 374.261 953.852 385.949 949.446 398.276C949.478 399.024 950.676 399.817 951.213 400.473C955.268 396.904 955.887 389.993 960.921 387.156C959.262 394.941 954.645 402.555 952.152 409.83C958.109 407.45 961.737 417.384 967.166 412.952C969.663 413.434 971.717 415.479 974.46 414.445C978.23 411.203 979.675 405.63 983.792 403.646C984.089 403.909 984.326 404.178 984.611 404.429C983.284 409.326 981.507 414.414 979.074 418.839C979.731 420.424 981.425 421.948 983.284 421.391C997.748 396.384 1006.69 368.952 1015.96 341.66C1016.53 340.499 1018.1 340.8 1018.87 341.187C1026.91 347.888 1018.51 356.38 1018.37 363.801C1016.38 369.456 1014.55 374.952 1013.14 380.668C1014.69 380.985 1017.62 383.669 1017.9 380.008C1020.32 375.742 1020.64 370.156 1023.3 366.406C1023.55 366.739 1023.89 367.031 1024.18 367.278C1018.27 388.649 1009.63 409.133 1001.08 429.585C1002.3 430.97 1004.82 432.26 1005.47 429.604C1017.6 402.188 1028.17 374.106 1037.13 345.571C1037.84 339.758 1041.03 334.48 1041.78 328.86C1044.45 328.644 1043.78 333.592 1046.53 331.919C1048.97 331.047 1047 327.319 1049.77 327.7C1050.87 331.373 1051.85 335.114 1052.82 338.88C1055.73 340.686 1058.45 343.01 1061.77 343.01C1091.54 263.349 1094.45 175.043 1081.39 89.3972C1081.54 88.8266 1082.53 88.9375 1083.04 88.7061C1083.34 88.9724 1083.68 89.3655 1084.07 89.6603C1088.68 121.872 1091.33 154.442 1091.92 187.05C1093.02 234.757 1084.52 281.097 1070.91 325.943C1071.27 327.471 1072.66 328.007 1073.96 327.576C1074.69 327.164 1075.35 326.91 1076.09 326.527C1102.87 242.764 1101.52 151.196 1085.26 63.116C1087.35 60.8432 1090.09 57.1821 1088.3 53.1691C1084.57 36.2421 1080.26 19.331 1075.43 2.61325C1074.3 2.20117 1073.13 1.61792 1071.96 1.10441H829.99C836.131 16.5606 841.702 32.2513 846.652 48.0244C853.253 73.5987 858.145 99.5724 861.423 125.701C862.434 139.661 862.899 153.644 862.952 167.711C862.409 168.123 861.732 168.637 861.154 169.109C861.075 174.238 860.923 179.481 860.718 184.657C859.779 185.5 858.31 185.155 857.302 184.312C857.371 164.044 857.131 143.893 854.751 123.574C851.484 98.5675 846.756 73.8269 840.476 49.3399C835.559 33.1071 829.99 16.9853 823.73 1.10441V1.03784L791.571 1.10441Z" fill="#DA3131"/>
</g>
<path fill-rule="evenodd" clip-rule="evenodd" d="M886.579 42.9655L886.165 43.219C886.207 43.1873 886.277 43.1873 886.324 43.1461C886.356 43.1271 886.385 43.1271 886.461 43.0542C886.493 43.0257 886.531 43.0257 886.579 42.9655Z" fill="#131614"/>
<path fill-rule="evenodd" clip-rule="evenodd" d="M868.735 320.82L868.267 320.237C868.378 320.503 868.52 320.643 868.735 320.82Z" fill="#131614"/>
<path fill-rule="evenodd" clip-rule="evenodd" d="M846.545 144.749C848.362 144.178 850.413 143.364 852.527 142.606C853.163 142.755 854.433 143.005 855.704 143.265C855.824 144.676 855.997 145.953 856.149 146.838L856.279 147.389L856.437 149.206V149.792C854.866 150.752 853.368 151.745 851.883 152.936C850.976 152.328 850.129 151.694 849.26 151.069C849.26 151.069 847.999 150.141 846.94 149.396C846.668 148.217 846.513 147.015 846.513 145.757C846.513 145.44 846.513 145.104 846.545 144.749ZM846.592 138.65C846.592 138.52 846.842 136.748 847.095 134.605C849.301 134.32 851.045 134.013 853.251 133.794C852.821 135.968 852.458 138.209 852.095 140.457L852.063 140.983C850.201 141.607 848.252 142.314 846.561 142.894C846.561 142.064 846.561 139.246 846.592 138.65ZM866.645 155.041C872.377 161.749 881.435 165.733 894.209 167.112C896.967 168.855 898.668 171.388 899.771 174.019C899.489 173.921 899.23 173.908 898.977 173.781L898.668 173.617L898.134 173.591L888.618 171.845C883.388 170.71 877.924 169.591 871.903 169.591C866.243 163.809 859.919 158.829 853.659 154.249C855.492 152.81 857.322 151.539 859.218 150.334C859.553 150.366 859.856 150.429 860.131 150.502C860.905 152.689 862.043 155.865 862.043 155.865C862.043 155.865 864.679 155.371 866.645 155.041ZM1122.22 183.643C1122.22 183.643 1120.69 182.717 1119.28 181.899C1119.64 181.224 1120.05 180.571 1120.05 179.455C1120.05 179.218 1120.05 178.974 1119.99 178.679H1119.95L1120.24 176.935L1118.31 175.163C1101.92 165.416 1082.43 161.65 1061.93 164.364C1061.78 164.364 1061.17 164.487 1061.17 164.487C1058.62 164.944 1056.21 165.483 1053.81 166.034H1053.78C1045.86 167.927 1038.92 170.516 1033.16 173.617L1032.87 173.781L1030.99 175.306C1023.83 180.891 1015.23 186.8 1011.82 195.777C1011.62 196.081 1008.87 202.025 1008.87 202.025C1006.29 206.729 1006.59 209.803 1002.21 211.116C1000.68 211.293 998.053 211.873 996.305 206.855C996.245 206.729 996.235 206.602 996.188 206.44C996.16 206.301 996.118 206.164 996.071 206.041C990.793 187.63 970.002 166.034 965.644 162.437C962.114 159.533 977.425 152.936 977.425 152.936L981.196 161.375C981.196 161.375 982.769 155.843 986.685 144.083C986.685 144.083 991.201 148.73 998.274 158.43C1000.07 154.883 999.905 140.517 998.053 130.408C1000.36 130.408 1002.03 130.475 1015.4 134.605C1012.54 129.515 1007.92 122.294 1004.54 116.467C1004.38 116.325 1004.23 116.189 1003.88 115.906C1004.06 115.84 1004.3 115.71 1004.3 115.71C1004.32 115.71 1004.34 115.71 1004.38 115.71C1007.7 113.916 1014.64 111.145 1019.11 108.391L1007.5 106.619C1004.54 105.791 1001.56 104.473 998.416 102.539L998.685 102.771C998.324 102.539 997.809 102.203 997.338 101.88C999.07 100.384 1000.85 98.7861 1002.36 96.7954C1007.67 88.5475 1010.46 78.2518 1010.46 68.0925C1010.46 61.1189 1009.17 54.2371 1006.59 47.9894L1006.46 47.6882L1006.35 47.4505C1003.68 43.0888 999.07 40.9174 993.761 41.4056H993.325L992.854 41.6021C980.44 46.3759 970.229 54.0596 963.763 63.3663C960.338 61.5341 956.147 59.7019 951.685 59.2391C952.434 58.1867 953.066 56.9568 953.066 55.6002C953.066 54.646 952.75 53.6634 951.96 52.6205L951.163 51.6157L949.852 51.324C945.611 50.5379 940.899 51.9612 936.231 54.9947C932.492 53.8694 925.932 52.592 920.67 56.4497L918.382 58.0948C918.382 58.0948 918.587 58.6274 918.805 59.0711C914.159 52.5635 907.305 46.8704 899.23 43.1554L899.094 43.0888L898.551 42.924L896.873 42.4041C894.398 41.4753 890.407 40.0774 886.605 42.7084C886.526 42.8035 886.488 42.8035 886.456 42.832C886.38 42.8669 886.352 42.9018 886.32 42.924C881.741 45.5771 881.125 50.072 880.6 53.806L880.006 57.5591C878.903 61.9398 878.505 66.0828 878.505 69.912C878.505 74.7143 879.106 79.1362 879.81 83.5011V83.5265C880.006 84.5313 880.186 85.5837 880.37 86.5537C880.37 86.5537 880.49 87.0038 880.553 87.3176C878.635 89.3083 858.523 109.903 858.523 109.903L858.402 110.892C858.333 111.177 858.292 111.58 858.292 112.014C858.292 113.225 858.718 114.638 860.131 115.71C859.976 115.932 859.755 116.189 859.663 116.325C859.66 116.353 859.66 116.376 859.606 116.423H859.591L859.559 116.467C859.559 116.467 859.553 116.505 859.486 116.544C856.816 120.081 855.116 125.197 853.864 130.776C853.76 131.264 853.659 131.749 853.564 132.206C851.32 132.399 849.465 132.618 847.294 132.868C847.664 129.939 848.034 126.922 848.034 126.922V126.687C848.034 126.646 848.527 125.197 848.527 125.197L849.212 123.777L849.301 123.077C849.475 122.354 849.629 121.279 849.629 120.17C849.629 118.423 849.212 116.467 847.477 115.06L846.722 114.41L845.692 114.268C841.561 113.694 837.658 114.6 834.387 116.962C834.568 116.861 834.726 116.794 834.874 116.727L833.882 117.292C834.09 117.168 834.248 117.076 834.387 116.962C830.984 118.309 828.907 120.956 827.384 123.704C825.972 121.539 824.3 119.162 821.92 117.076L821.762 116.895L818.339 114.686C814.648 112.242 810.461 109.497 804.535 110.02C804.466 110.02 804.33 110.058 804.197 110.058C801.584 110.169 800.003 112.175 799.261 113.253L798.275 114.448L798.11 115.583C798.11 115.906 798.069 116.189 798.069 116.467C798.069 118.274 798.607 119.764 799.324 121.067C796.973 121.279 794.612 121.999 792.615 124.221L792.106 124.814L791.878 125.53C791.651 126.338 791.509 127.067 791.509 127.787C791.509 129.515 792.235 130.989 793.139 132.336C792.267 132.71 791.385 133.223 790.608 134.162L790.08 134.925L789.938 135.816C789.834 136.273 789.827 136.729 789.827 137.167C789.827 141.579 793.139 144.457 795.614 146.616L797.921 148.778L798.407 149.117C801.599 150.876 804.251 153.891 807.086 157.019C809.999 160.325 812.98 163.809 816.977 166.136C821.92 168.887 824.739 168.916 827.574 168.668H828.522C834.726 178.679 840.597 188.1 852.572 196.151C862.173 202.592 871.249 204.462 880.091 206.301L888.463 208.184L893.039 209.217C893.039 209.217 893.665 209.442 894.082 209.582C892.875 215.027 892.733 221.044 891.981 227.301C890.167 243.413 901.977 263.497 910.487 269.216C915.044 272.259 913.079 274.43 912.241 276.281C911.135 278.662 911.135 279.559 904.717 280.583C879.516 283.531 865.421 292.536 858.605 299.529C848.41 309.926 860.204 312.972 860.204 312.972C860.245 313.02 860.277 313.096 860.283 313.194C860.779 314.243 860.779 317.242 866.464 317.324C866.559 317.559 866.645 317.718 866.645 317.718C866.645 317.718 868.455 320.203 868.793 320.643C868.778 320.618 868.733 320.618 868.733 320.596L868.86 320.742C870.421 322.678 873.208 322.193 888.365 319.09C896.911 317.353 907.536 315.21 914.671 314.389C914.997 314.367 921.703 313.162 921.703 313.162C930.495 311.78 939.533 310.348 946.473 303.035L946.635 302.88L946.767 302.645C946.767 302.645 946.767 302.635 946.783 302.635C946.584 304.718 946.293 306.839 946.293 306.839C946.584 311.92 949.722 316.091 955.683 319.467C960.053 321.921 964.582 323.281 969.025 324.53L977.842 327.528L978.294 327.63C980.737 328.127 983.297 329.085 985.996 330.121C992.487 332.597 999.905 335.402 1007.85 331.418C1007.85 331.418 1009.4 330.245 1009.54 329.817C1009.79 329.88 1010.08 329.912 1010.08 329.912C1011.54 330.188 1013.93 330.435 1015.23 329.487C1016.5 328.546 1017.05 328.051 1017.05 328.051C1017.34 327.918 1018.48 327.943 1019.25 327.943H1019.32C1019.57 327.943 1019.81 327.943 1020.05 327.943C1025.97 327.725 1027.23 324.945 1027.25 324.587C1027.62 324.504 1028.03 324.412 1028.03 324.412C1028.03 324.412 1032.12 323.398 1033.01 321.502C1033.45 320.551 1033.6 319.566 1033.6 318.735C1033.6 316.503 1032.45 314.592 1031.95 313.733L1031.75 313.384L1031.45 313.115C1022.14 303.453 1010.5 299.066 999.272 294.872C999.272 294.872 988.193 290.381 987.267 290.004C983.999 287.278 983.62 282.523 983.62 277.264C983.62 276.671 983.632 276.075 983.632 275.41C983.632 275.41 983.563 273.001 983.563 271.552C983.91 271.121 984.23 270.664 984.23 270.664C988.306 264.829 992.519 258.743 994.899 251.839C995.006 251.439 995.496 249.03 995.496 249.03C995.597 248.422 995.806 247.978 995.929 247.452C996.751 247.857 997.73 248.342 997.73 248.342C999.927 249.598 1002.47 251.078 1005.48 251.769C1017.59 254.368 1030.57 251.338 1042.34 243.29C1051.51 237.619 1057.84 229.653 1063.62 221.671C1064.45 220.537 1065.29 219.373 1066.09 218.223C1072.09 209.895 1077.75 201.942 1086.12 196.357C1093.49 190.55 1104.14 190.895 1114.37 191.307L1120.65 191.475L1121.6 190.715C1122.92 189.703 1123.57 188.252 1123.57 186.426V184.407L1122.22 183.643Z" fill="white"/>
<path fill-rule="evenodd" clip-rule="evenodd" d="M912.364 135.05C924.177 133.475 936.335 132.872 948.328 133.792C952.793 134.108 957.155 134.635 961.481 135.408C961.772 135.05 962.214 134.926 962.097 134.546C961.772 134.074 961.26 134.074 960.884 133.573C946.662 131.094 929.553 130.85 914.813 133.601C914.209 133.725 913.596 133.82 912.958 133.985L912.364 135.05Z" fill="white"/>
<path fill-rule="evenodd" clip-rule="evenodd" d="M936.235 147.183C936.049 146.964 935.78 146.812 935.885 146.578C930.269 142.533 923.55 141.059 917.416 138.336C915.728 138.238 912.024 136.881 911.74 139.439C918.386 140.2 924.403 142.533 930.041 145.37C931.982 146.365 934.415 148.372 936.235 147.183Z" fill="white"/>
<path fill-rule="evenodd" clip-rule="evenodd" d="M859.666 116.582C859.607 116.647 859.607 116.647 859.591 116.647H859.607C859.663 116.647 859.663 116.582 859.663 116.582" fill="#131614"/>
<path fill-rule="evenodd" clip-rule="evenodd" d="M929.922 216.995C929.638 216.843 929.568 216.453 929.732 216.177C930.412 215.128 930.548 214.618 930.548 214.336C930.554 214.092 930.38 213.772 930.137 213.039H930.153C930.033 212.767 930.169 212.412 930.443 212.282C930.756 212.196 931.101 212.317 931.221 212.637C931.433 213.23 931.72 213.673 931.752 214.336C931.72 215.03 931.407 215.734 930.756 216.815C930.621 216.995 930.443 217.094 930.254 217.094C930.153 217.094 930.042 217.049 929.922 216.995Z" fill="white"/>
<path fill-rule="evenodd" clip-rule="evenodd" d="M928.596 225.804C928.428 225.516 928.491 225.183 928.773 224.987C929.275 224.648 929.446 224.007 929.446 223.202C929.446 222.65 929.402 222.115 929.291 221.646C929.215 221.297 929.414 221.018 929.73 220.923C930.072 220.853 930.372 221.034 930.441 221.367C930.546 221.921 930.631 222.552 930.631 223.202C930.65 224.159 930.378 225.307 929.408 225.976C929.316 226.026 929.215 226.071 929.073 226.071C928.918 226.071 928.697 225.976 928.596 225.804Z" fill="white"/>
<path fill-rule="evenodd" clip-rule="evenodd" d="M926.717 235.641C926.493 235.419 926.493 235.032 926.707 234.782C927.261 234.243 927.605 233.362 927.605 232.519C927.605 232.075 927.535 231.685 927.377 231.308C927.286 231.023 927.431 230.677 927.7 230.554C928.038 230.411 928.389 230.592 928.49 230.896C928.68 231.406 928.771 231.939 928.771 232.519C928.771 233.654 928.348 234.811 927.542 235.641C927.45 235.768 927.286 235.838 927.144 235.838C926.967 235.838 926.843 235.768 926.717 235.641Z" fill="white"/>
<path fill-rule="evenodd" clip-rule="evenodd" d="M1087.03 171.417L1086.42 171.915C1092.07 176.467 1088.11 183.567 1087.64 188.705C1090.83 185.764 1096.49 188.823 1098.79 183.672C1100.4 180.73 1100.4 177.158 1099.07 173.966C1095.25 172.774 1090.92 172.441 1087.03 171.417Z" fill="#FFFFFE"/>
<path fill-rule="evenodd" clip-rule="evenodd" d="M941.781 277.207C940.653 285.302 945.656 295.094 940.653 301.608C937.423 306.968 913.241 309.247 913.241 309.247C899.67 311.102 886.277 314.253 873.045 317.007C868.782 317.901 877.412 306.556 883.309 306.084C886.277 305.821 885.607 303.009 883.847 303.104C878.812 304.585 873.677 306.927 870.618 312.005C869.398 312.718 867.682 313.194 866.184 312.592C864.74 311.742 865.71 310.129 866.184 309.016C869.066 304.806 873.63 303.767 876.866 302.03C875.997 299.212 874.41 300.847 872.473 301.608C868.039 303.358 864.85 307.441 861.282 310.005C860.135 310.059 859.828 310.005 859.449 309.016C860.909 304.341 863.447 302.756 866.794 299.487C875.434 291.015 892.01 288.117 895.369 287.499C901.601 286.146 908.352 285.496 914.732 284.539C917.741 281.343 917.51 276.75 918.626 272.74C919.381 269.903 924.159 271.897 929.143 271.647C933.337 271.523 937.256 270.927 940.903 269.548C945.194 270.417 941.519 274.595 941.781 277.207Z" fill="#FFFFFE"/>
<path fill-rule="evenodd" clip-rule="evenodd" d="M840.598 176.635C836.67 172.441 834.948 167.24 830.915 163.036C814.627 167.087 809.877 146.965 796.86 140.92C796.506 140.077 795.042 139.221 796.038 137.998C803.335 135.05 809.106 142.746 813.935 147.476C814.459 147.476 815.357 147.311 815.357 146.547V145.729C810.702 140.426 804.982 137.484 799.808 132.083C798.55 130.755 796.86 129.465 798.111 127.683C801.29 125.328 804.466 128.292 807.778 128.644C813.135 130.631 815.123 135.75 817.462 140.426C818.533 140.838 818.814 139.576 819.544 139.221C816.583 134.384 815.253 128.894 810.702 124.716C807.889 122.989 805.418 121.128 803.613 118.307C803.692 116.066 804.773 116.551 805.945 116.227C810.243 115.131 817.863 120.491 822.142 126.177C823.596 128.352 829.711 133.573 825.441 137.747C825.151 138.625 825.53 139.358 826.241 139.824C827.154 138.936 828.308 137.678 829.249 136.245C829.322 136.121 829.411 135.975 829.499 135.842C830.141 134.831 830.634 133.791 830.915 132.711C830.327 129.994 831.297 128.232 832.761 125.946C835.327 122.009 839.609 120.782 843.657 120.941C844.779 121.689 843.831 122.757 843.657 123.575C842.289 126.564 841.824 128.697 841.508 133.82C837.763 134.33 834.831 134.961 831.038 135.693C830.634 135.75 830.296 135.975 830.093 136.245C830.021 136.315 829.967 136.384 829.951 136.441C829.91 136.492 829.894 136.537 829.84 136.67C829.578 137.421 830.021 138.27 831.136 138.121C834.726 137.421 837.811 136.343 841.439 135.624C841.344 136.73 841.284 137.998 841.236 139.358C841.132 141.348 840.845 143.418 840.645 145.371C838.983 146.037 837.397 146.781 835.602 147.653C835.602 147.653 831.933 149.248 830.327 150.113C828.747 151.004 829.742 152.909 831.361 152.053C832.792 151.219 836.622 149.454 836.622 149.454C838.013 148.763 839.271 148.1 840.522 147.501C840.491 150.367 841.091 152.772 843.657 154.199C853.321 159.54 862.173 167.087 870.112 176.052C882.232 176.052 894.769 177.034 905.033 182.597C905.349 183.285 905.507 184.021 905.507 184.74C905.507 187.102 903.921 189.387 903.295 191.67C900.896 195.863 900.71 201.892 898.315 205.154C876.862 201.642 854.813 196.111 840.598 176.635Z" fill="#FFFFFE"/>
<path fill-rule="evenodd" clip-rule="evenodd" d="M1066.18 173.909C1068.08 175.278 1078.06 188.696 1069.67 203.788C1066.18 208.089 1063.72 213.015 1059.77 217.345L1059.19 216.651C1062.23 206.124 1060.76 193.023 1055.86 184.629C1052.95 179.634 1043.63 175.763 1043.63 175.763C1050.6 173.769 1059.19 167.905 1066.18 173.909Z" fill="#FFFFFE"/>
<path fill-rule="evenodd" clip-rule="evenodd" d="M1043.87 207.864C1045.8 217.317 1046.18 228.326 1041.52 237.056C1035.55 241.731 1028.55 244.828 1021.57 245.906C1024.9 238.45 1027.54 228.976 1024.5 220.829C1020.7 214.73 1012.87 215.282 1006.87 215.833V214.974C1012.74 211.269 1012.41 203.788 1018.84 201.325C1024.29 198.143 1032.35 197.258 1037.99 200.846C1040.81 202.32 1042.64 205.281 1043.87 207.864Z" fill="#FFFFFE"/>
<path fill-rule="evenodd" clip-rule="evenodd" d="M1026.23 316.319C1026.71 317.368 1028.83 319.039 1026.87 319.66C1023.05 319.768 1020.44 315.378 1017.17 313.771C1014.95 313.286 1012.87 309.247 1010.66 311.961C1011.92 314.252 1015.16 314.766 1017.17 316.449C1020.05 318.817 1024.97 321.375 1022.39 322.614C1015.67 325.921 1014.74 318.56 1008.37 314.861C1006.27 313.704 1003.83 310.407 1001.84 312.541C1002.37 315.593 1005.43 315.337 1007.44 316.95C1010.51 319.413 1015.8 321.407 1013.03 325.198C1009.66 325.071 1006.8 323.797 1004.43 321.118C1001.16 317.441 997.815 313.229 993.274 311.961C993.274 311.961 992.025 311.615 992.427 312.905C992.828 314.243 1004.33 320.148 1004.43 327.319C1001.51 328.767 998.059 329.144 995.107 327.629C981.66 322.614 967.024 320.275 954.848 312.541C952.376 310.189 951.119 307.168 952.108 303.675C953.129 294.97 955.53 285.271 953.002 276.503C951.416 273.447 949.45 268.825 945.658 267.83C950.294 262.048 951.656 255.88 951.485 248.247C951.485 246.678 951.454 244.979 951.226 243.511C953.637 244.329 955.483 245.308 956.219 245.584C959.888 247.109 974.527 253.014 985.765 250.038C986.394 249.844 988.009 248.919 989.911 247.426C987.683 255.16 983.445 262.299 978.357 268.895C976.638 276.116 977.649 284.053 979.773 290.986C981.985 295.665 991.921 297.519 998.314 300.096C1006.84 303.129 1019.98 311.102 1026.23 316.319Z" fill="#FFFFFE"/>
<path fill-rule="evenodd" clip-rule="evenodd" d="M911.323 80.8046L909.263 80.4654C907.155 82.1708 902.532 82.7952 903.36 86.374C905.455 86.2218 906.928 84.3453 909.263 84.6242C910.502 83.6289 911.213 82.2881 911.323 80.8046ZM949.598 82.2881C951.655 82.7952 953.744 85.3565 955.915 83.7811C954.326 79.4511 949.196 78.8805 945.429 77.2322C944.039 78.3511 943.306 79.5842 943.691 81.372C945.268 83.3722 947.506 81.0296 949.598 82.2881ZM1000.99 110.243L1001.83 111.153C999.771 113.378 995.744 112.021 993.273 111.153C982.038 104.04 972.112 93.5727 958.858 91.1446C950.363 88.539 940.721 87.1062 932.403 91.1446C928.727 93.9531 925.447 97.2085 924.603 102.569C923.399 109.847 926.623 116.066 933.003 119.416C936.603 122.095 942.051 120.234 945.616 122.095C934.732 123.078 923.247 124.317 913.33 128.825C912.957 129.367 912.158 129.617 912.158 130.349L906.649 130.409C906.321 127.626 905.076 125.09 902.532 123.208C899.179 122.095 894.83 121.432 890.797 121.759L890.693 119.67C899.378 118.887 910.796 122.738 915.783 113.505C918.235 109.057 919.67 103.044 917.717 97.8932C914.623 90.032 906.909 88.9923 898.983 89.6865C896.1 90.1493 894.245 90.8371 891.262 92.0195C880.223 96.3653 873.991 102.825 867.721 111.4C867.035 112.107 865.155 112.272 864.539 111.777L888.427 87.5437L889.562 86.374C892.975 83.2485 895.449 82.0377 897.734 79.9551C905.919 74.5188 913.691 68.2679 923.086 65.713C924.483 65.4911 925.652 66.5593 926 67.7892C925.896 71.9385 920.969 75.6377 924.603 79.9551C926.749 78.8805 927.498 76.0371 929.416 74.2684C934.476 69.2759 940.338 66.1853 946.64 64.22C954.683 65.0758 962.403 67.6656 968.06 74.2684C969.087 75.1274 970.029 76.0371 970.908 76.9913C977.405 84.0347 980.088 93.6963 987.395 100.841C991.459 104.436 995.485 109.308 1000.99 110.243Z" fill="#FFFFFE"/>
<path fill-rule="evenodd" clip-rule="evenodd" d="M1000.37 49.8433C1008.37 63.0204 1004.76 81.9094 997.693 94.7029C995.483 96.757 993.511 99.3784 990.689 99.9427C990.278 99.8856 989.969 99.724 989.71 99.5401C988.875 98.903 988.543 97.7682 987.817 97.0169C988.256 94.462 992.032 92.0181 993.271 89.0638C997.895 83.1425 998.056 75.4018 996.58 68.1397C994.858 66.1839 992.424 67.9114 990.332 67.7878C985.307 70.9767 980.276 74.267 975.627 78.505C974.253 77.9028 973.124 76.8631 972.072 75.7917C970.343 73.8834 968.814 71.6677 966.816 70.5044C970.896 57.9676 984.233 51.7135 995.104 47.5357C997.332 47.1236 998.672 48.9938 1000.37 49.8433Z" fill="#FFFFFE"/>
<path fill-rule="evenodd" clip-rule="evenodd" d="M928.841 232.474C928.841 231.907 928.771 231.365 928.547 230.842C928.443 230.553 928.076 230.401 927.773 230.509C927.494 230.62 927.352 230.969 927.456 231.27C927.573 231.628 927.652 232.043 927.652 232.474C927.652 233.292 927.33 234.214 926.793 234.757C926.556 235.007 926.556 235.378 926.793 235.571C926.881 235.695 927.074 235.768 927.191 235.768C927.352 235.768 927.495 235.695 927.605 235.571C928.427 234.756 928.809 233.606 928.841 232.474ZM929.444 225.948C930.481 225.282 930.753 224.144 930.693 223.123C930.693 222.489 930.607 221.893 930.497 221.297C930.44 221.018 930.133 220.828 929.789 220.882C929.508 220.952 929.327 221.199 929.327 221.449V221.573C929.444 222.058 929.508 222.622 929.508 223.123C929.508 223.97 929.315 224.616 928.809 224.946C928.547 225.13 928.474 225.501 928.648 225.767C928.771 225.948 928.958 225.998 929.154 225.998C929.274 225.998 929.391 225.976 929.444 225.948ZM931.796 214.311C931.796 213.645 931.483 213.179 931.271 212.564C931.16 212.282 930.813 212.143 930.497 212.263C930.266 212.349 930.165 212.545 930.165 212.79C930.165 212.888 930.165 212.916 930.168 213.04C930.481 213.706 930.607 214.064 930.607 214.311C930.607 214.565 930.481 215.1 929.789 216.137C929.634 216.384 929.691 216.774 930.029 216.926C930.076 216.996 930.203 217.021 930.291 217.021C930.497 217.021 930.693 216.926 930.813 216.774C931.429 215.668 931.796 214.974 931.796 214.311ZM992.423 207.962C996.594 219.348 995.387 227.456 994.155 232.075C993.643 234.021 992.947 235.837 992.141 237.438C991.791 237.838 991.456 238.231 991.124 238.592C989.237 240.472 986.039 243.413 983.969 244.234C979.478 246.098 974.267 245.268 971.701 244.7C970.446 244.383 969.188 244.203 967.94 243.955C965.469 243.413 959.78 241.521 959.243 241.283C958.146 240.858 949.683 235.958 936.09 238.592C934.807 238.798 930.291 238.516 929.691 238.449C924.698 237.914 923.952 237.536 920.643 235.768C915.726 233.292 917.034 226.445 918.383 226.445C919.72 226.445 921.281 227.647 921.575 226.303C921.575 225.681 922.76 224.898 918.238 224.008C916.433 222.362 916.778 217.975 918.693 217.975C920.558 217.975 922.403 219.348 922.403 217.471C922.176 216.996 919.6 216.52 918.541 215.449C917.947 214.907 914.926 201.955 934.321 210.894C936.233 211.794 936.056 208.13 936.716 204.434C937.14 202.624 938.037 200.411 939.292 198.322V198.297C941.627 194.408 945.186 191.174 948.722 192.512C952.84 194.157 948.621 199.73 946.791 203.232C944.513 207.521 942.945 221.548 953.674 222.749C955.602 222.968 962.795 223.123 964.65 223.123C970.421 223.123 967.374 217.728 965.747 211.794C964.495 207.366 963.237 202.995 962.21 198.449C961.294 193.967 960.69 191.117 961.891 186.318C960.15 184.581 959.148 188.236 958.949 188.749C957.694 192.512 964.122 213.645 965.851 220.73C965.409 221.199 958.146 220.578 956.329 220.578C953.741 220.578 951.481 218.819 950.704 217.814C947.581 213.858 948.722 208.225 949.108 206.548C950.47 200.215 955.744 197.134 952.183 191.792C950.201 188.822 943.846 189.358 939.292 194.503C931.755 185.887 921.341 183.19 910.941 185.732C909.854 185.985 909.124 186.356 907.411 186.955C907.49 186.163 907.496 185.446 907.496 184.686C907.67 177.145 905.767 169.822 899.81 164.491L900.411 164.002C920.043 164.491 938.312 159.302 952.104 145.687C953.801 145.538 954.575 150.103 956.929 147.782C956.547 143.227 951.481 142.467 948.567 140.352C948.34 140.324 948.122 140.292 947.919 140.292L948.34 133.724H948.362C952.831 134.038 957.217 134.58 961.531 135.338C961.815 134.976 962.273 134.897 962.141 134.479C961.815 134.038 961.294 134.038 960.921 133.543C946.918 131.065 930.076 130.811 915.511 133.445L915.046 130.665C916.528 130.221 918.029 129.179 919.568 128.824C929.96 125.511 942.468 122.703 953.605 125.628C959.338 126.868 963.718 129.993 968.338 134.976C971.934 138.935 973.328 142.701 975.423 146.781C974.412 146.743 970.383 149.009 969.255 149.618C956.199 156.408 955.479 162.04 958.927 166.256C959.296 166.675 959.666 167.058 960.058 167.489C966.673 171.762 974.81 180.448 974.81 180.448C984.269 191.06 989.55 200.284 992.423 207.962Z" fill="#FFFFFE"/>
<path fill-rule="evenodd" clip-rule="evenodd" d="M982.363 129.046L982.477 130.371C973.426 126.463 963.152 124.944 952.754 123.207L950.69 122.094C961.075 122.247 973.331 125.166 982.363 129.046Z" fill="#FFFFFE"/>
<path fill-rule="evenodd" clip-rule="evenodd" d="M949.193 114.349C950.454 112.019 950.359 109.902 949.193 107.572C947.865 105.1 945.859 103.93 943.049 103.819C940.334 103.642 938.46 104.529 936.827 106.65C935.205 108.799 934.693 111.015 935.714 113.478C936.599 115.62 937.996 116.581 940.101 117.294C943.665 118.53 947.382 117.579 949.193 114.349ZM952.998 97.0166C955.178 99.8504 955.965 103.242 955.415 107.341C954.679 112.974 952.309 117.389 946.791 119.041C941.813 120.489 934.949 119.538 931.008 115.681C927.946 112.105 925.854 108.523 926.524 103.508C927.286 97.8027 930.907 93.6946 935.961 92.2396C942.227 89.9035 948.567 92.3696 952.998 97.0166Z" fill="#FFFFFE"/>
<path fill-rule="evenodd" clip-rule="evenodd" d="M936.296 147.142C936.094 146.907 935.838 146.78 935.964 146.52C930.295 142.466 923.617 140.979 917.464 138.269C915.783 138.174 912.095 136.827 911.826 139.417C918.45 140.136 924.483 142.466 930.08 145.328C932.039 146.298 934.476 148.362 936.296 147.142ZM945.638 141.496C945.429 143.946 950.183 142.701 949.598 145.328C938.891 155.26 925.652 159.935 912.174 161.843C892.754 164.335 869.778 157.656 867.835 145.604C870.717 144.152 873.893 142.647 876.918 141.924C877.752 141.775 878.242 140.887 877.35 141.109C874.547 141.8 870.742 142.894 867.683 144.152C867.576 142.244 867.683 140.615 868.034 139.09C870.907 138.589 873.991 137.867 876.677 137.103C877.104 137.008 876.927 136.405 876.472 136.44C874.023 136.687 871.153 137.16 868.397 137.607C868.919 135.841 869.687 134.285 870.742 132.808C872.335 132.741 873.991 132.709 876.058 132.709C876.772 132.709 876.772 131.971 876.058 131.971C874.31 131.971 872.85 131.933 871.387 131.86C872.553 130.37 873.893 128.921 875.435 127.378C879.879 122.854 884.012 119.729 889.745 119.729C890.036 119.7 890.32 119.669 890.621 119.669H890.693L890.798 121.758C888.696 121.941 886.626 122.385 884.881 123.206C880.463 124.912 880.245 129.679 880.097 133.258C881.92 138.935 886.97 142.98 892.264 145.328C899.22 147.031 902.772 139.287 906.321 134.728C906.656 133.258 906.776 131.834 906.65 130.408L912.158 130.348C912.158 130.408 912.158 130.471 912.174 130.573C912.91 130.903 913.653 130.969 914.402 130.849C914.582 130.849 914.813 130.788 915.05 130.665L915.514 133.445C915.312 133.473 915.081 133.543 914.892 133.572L912.995 133.927L912.446 134.976C924.243 133.445 936.334 132.842 948.343 133.724L947.923 140.292C946.969 140.292 946.134 140.868 945.638 141.496Z" fill="#FFFFFE"/>
<path fill-rule="evenodd" clip-rule="evenodd" d="M948.711 250.457C948.72 251.148 948.787 251.813 948.72 252.479C948.61 257.304 946.072 264.141 943.613 265.425C940.048 267.222 927.54 271.428 918.189 267.498C912.105 265.009 908.111 260.721 905.307 256.321H905.339C904.34 254.692 897.953 243.886 897.486 235.007C895.754 218.99 900.804 204.988 905.696 191.352C910.196 186.825 916.95 187.101 922.733 187.808C927.113 188.502 933.968 191.533 937.893 196.278C937.201 197.286 936.597 198.392 936.089 199.654C933.488 205.914 934.875 208.307 931.317 207.521C930.479 207.366 927.771 206.856 926.026 206.456C922.174 205.626 917.241 204.564 916.239 211.461C916.131 212.349 916.605 215.059 916.605 215.956C916.605 217.633 912.99 219.373 916.432 225.13C916.833 225.767 913.132 230.699 916.726 236.332C918.884 239.708 927.259 244.234 941.499 242.031C943.727 241.648 946.119 242.006 948.322 242.545C948.528 244.868 948.638 248.298 948.711 250.457Z" fill="#FFFFFE"/>
<path fill-rule="evenodd" clip-rule="evenodd" d="M915.368 98.5385C917.51 104.304 916.389 111.956 910.943 115.808C912.615 114.423 913.434 112.292 913.329 110.219C913.329 107.189 912.204 105.195 910.122 104.124C908.27 103.601 905.287 103.208 903.656 104.304C900.84 105.585 899.999 108.165 900.11 111.11C900.236 113.453 901.911 115.656 903.836 116.67C905.312 117.114 907.189 117.615 909.126 116.879C909.464 116.762 909.771 116.645 910.043 116.442C909.998 116.505 909.954 116.55 909.891 116.581C905.77 118.914 901.504 118.531 897.733 117.294C893.796 115.434 890.487 111.399 890.402 106.999C890.035 102.567 891.533 98.1328 894.829 94.9281C897.648 92.7219 902.866 91.1147 906.908 92.1735C910.57 93.4478 913.788 94.237 915.368 98.5385Z" fill="#FFFFFE"/>
<path fill-rule="evenodd" clip-rule="evenodd" d="M903.595 52.1825C908.266 55.9895 914.524 60.2751 915.778 66.0442C910.197 68.6847 905.087 72.4632 899.809 75.5252C898.22 70.5961 896.39 62.9378 889.557 63.3467C885.509 68.2663 886.536 77.6142 887.418 85.2281C888.069 85.4849 887.317 86.0871 887.212 86.3724C885.357 86.4675 885.768 83.9919 884.877 82.8951C882.959 71.452 884.137 60.2751 887.212 49.8432C892.259 44.4798 898.871 49.3138 903.595 52.1825Z" fill="#FFFFFE"/>
<path fill-rule="evenodd" clip-rule="evenodd" d="M869.752 131.861L869.072 132.91C867.164 133.021 865.261 133.116 862.72 133.116C861.235 133.116 859.737 133.348 858.195 133.544L858.463 131.972C859.699 131.861 860.814 131.763 862.265 131.763C865.21 131.734 867.432 131.763 869.752 131.861Z" fill="#FFFFFE"/>
<path fill-rule="evenodd" clip-rule="evenodd" d="M867.204 137.765L866.686 139.356C864.445 139.791 862.498 139.924 860.378 140.352L860.567 138.741C862.786 138.269 864.805 138.12 867.204 137.765Z" fill="#FFFFFE"/>
<path fill-rule="evenodd" clip-rule="evenodd" d="M866.687 144.556L866.893 146.103C866.466 146.366 865.606 146.87 865.259 147.13L864.447 145.687C865.066 145.329 865.828 144.943 866.687 144.556Z" fill="#FFFFFE"/>
</svg>
